<svg width="24" height="28" viewBox="0 0 24 28" fill="none" xmlns="http://www.w3.org/2000/svg">
<path d="M22 26V24.0671C22 22.7647 22 22.1142 21.8493 21.5823C21.6636 20.9238 21.3119 20.3239 20.828 19.8401C20.344 19.3563 19.744 19.0047 19.0853 18.8189C18.5533 18.6683 17.9027 18.6683 16.6 18.6683H7.4C6.09733 18.6683 5.44667 18.6683 4.91467 18.8189C4.25598 19.0047 3.65598 19.3563 3.17205 19.8401C2.68812 20.3239 2.33644 20.9238 2.15067 21.5823C2 22.1142 2 22.7647 2 24.0671V26M18.2667 7.41746C18.2667 10.4101 15.76 12.8363 12.6667 12.8363C9.57333 12.8363 7.06667 10.4101 7.06667 7.41746C7.06667 4.42479 9.57333 2 12.6667 2C15.76 2 18.2667 4.42613 18.2667 7.41746Z" fill="#6A58FF" fill-opacity="0.5"/>
<path d="M22 26V24.0671C22 22.7647 22 22.1142 21.8493 21.5823C21.6636 20.9238 21.3119 20.3239 20.828 19.8401C20.344 19.3563 19.744 19.0047 19.0853 18.8189C18.5533 18.6683 17.9027 18.6683 16.6 18.6683H7.4C6.09733 18.6683 5.44667 18.6683 4.91467 18.8189C4.25598 19.0047 3.65598 19.3563 3.17205 19.8401C2.68812 20.3239 2.33644 20.9238 2.15067 21.5823C2 22.1142 2 22.7647 2 24.0671V26M18.2667 7.41746C18.2667 10.4101 15.76 12.8363 12.6667 12.8363C9.57333 12.8363 7.06667 10.4101 7.06667 7.41746C7.06667 4.42479 9.57333 2 12.6667 2C15.76 2 18.2667 4.42613 18.2667 7.41746Z" stroke="#6A58FF" stroke-width="2.8" stroke-linecap="round" stroke-linejoin="round"/>
</svg>
