<svg width="22" height="18" viewBox="0 0 22 18" fill="none" xmlns="http://www.w3.org/2000/svg">
<path d="M16.1046 0H0V2.64119H16.1046V0Z" fill="white"/>
<path d="M16.1046 15.0562H0V17.6973H16.1046V15.0562Z" fill="white"/>
<path d="M6.5484 3.96255H3.90267C3.58738 3.96255 3.33179 4.22238 3.33179 4.5429V13.2434C3.33179 13.5639 3.58738 13.8237 3.90267 13.8237H6.5484C6.86369 13.8237 7.11929 13.5639 7.11929 13.2434V4.5429C7.11929 4.22238 6.86369 3.96255 6.5484 3.96255Z" fill="white"/>
<path d="M11.6493 4.15147L9.25243 4.72834C8.94562 4.80218 8.75579 5.11488 8.82843 5.42678L10.5029 12.6165C10.5756 12.9284 10.8832 13.1213 11.19 13.0475L13.5868 12.4706C13.8936 12.3968 14.0835 12.0841 14.0108 11.7722L12.3363 4.58249C12.2637 4.2706 11.9561 4.07762 11.6493 4.15147Z" fill="white"/>
<path d="M19.9489 18C20.8092 18 21.5066 17.2911 21.5066 16.4165C21.5066 15.542 20.8092 14.8331 19.9489 14.8331C19.0886 14.8331 18.3912 15.542 18.3912 16.4165C18.3912 17.2911 19.0886 18 19.9489 18Z" fill="white"/>
</svg>
