<svg width="128" height="52" viewBox="0 0 128 52" fill="none" xmlns="http://www.w3.org/2000/svg">
<path d="M17.4609 0.828125V9.17188H20.6016V11.6328H17.4609V22.1562H14.5078V0.828125H17.4609ZM13.0547 4.01562V6.40625H0.515625V4.01562H5.34375V1.15625H8.34375V4.01562H13.0547ZM6.84375 7.60156C9.96094 7.60156 12.2812 9.71094 12.2812 12.6875C12.2812 15.6641 9.96094 17.7734 6.84375 17.7734C3.70312 17.7734 1.38281 15.6641 1.38281 12.6875C1.38281 9.71094 3.70312 7.60156 6.84375 7.60156ZM6.84375 10.0156C5.34375 10.0391 4.24219 11.0469 4.24219 12.6875C4.24219 14.3516 5.34375 15.3359 6.84375 15.3125C8.34375 15.3359 9.42188 14.3516 9.42188 12.6875C9.42188 11.0469 8.34375 10.0391 6.84375 10.0156ZM41.0625 3.47656V5.91406H38.2969V8.11719H41.0625V10.5781H38.2969V13.2969H35.2969V0.828125H38.2969V3.47656H41.0625ZM27.375 2C30.6797 1.97656 33.1875 4.13281 33.1875 7.15625C33.1875 10.1797 30.6797 12.3125 27.375 12.3125C24.0469 12.3125 21.5156 10.1797 21.5156 7.15625C21.5156 4.13281 24.0469 1.97656 27.375 2ZM27.375 4.50781C25.6875 4.48438 24.4453 5.51562 24.4688 7.15625C24.4453 8.82031 25.6875 9.80469 27.375 9.80469C29.0156 9.80469 30.2578 8.82031 30.2812 7.15625C30.2578 5.51562 29.0156 4.48438 27.375 4.50781ZM31.3125 13.7188C35.6953 13.7188 38.5078 15.3125 38.5078 17.9609C38.5078 20.5859 35.6953 22.1562 31.3125 22.1562C26.8359 22.1562 24 20.5859 24 17.9609C24 15.3125 26.8359 13.7188 31.3125 13.7188ZM31.3125 16.0859C28.5 16.0859 26.9766 16.7188 27 17.9609C26.9766 19.2031 28.5 19.7891 31.3125 19.7891C34.0781 19.7891 35.5547 19.2031 35.5547 17.9609C35.5547 16.7188 34.0781 16.0859 31.3125 16.0859ZM59.7656 2.07031V4.46094H55.5234C55.5469 6.95703 57.0234 9.51172 60.4922 10.625L58.9688 12.9453C56.6016 12.1836 54.9727 10.6602 54.0469 8.75C53.0977 10.8359 51.3984 12.4883 48.9141 13.2969L47.3203 11C50.8477 9.86328 52.4531 7.13281 52.5 4.46094H48.1406V2.07031H59.7656ZM64.5703 0.828125V6.00781H67.4531V8.49219H64.5703V13.6953H61.5703V0.828125H64.5703ZM64.5703 14.6094V22.1562H61.5703V16.9766H50.2031V14.6094H64.5703ZM85.2188 0.828125V9.00781H88.2422V11.4688H85.2188V22.1094H82.2188V0.828125H85.2188ZM79.5234 3.00781C79.5 9.38281 77.0156 14.9141 69.8438 18.4297L68.1562 16.1328C73.207 13.6016 75.9141 10.2031 76.4766 5.44531H69.375V3.00781H79.5234ZM96.0469 2.25781C99.4219 2.23438 101.953 4.4375 101.953 7.48438C101.953 10.5547 99.4219 12.7344 96.0469 12.7344C92.6719 12.7344 90.1172 10.5547 90.1172 7.48438C90.1172 4.4375 92.6719 2.23438 96.0469 2.25781ZM96.0469 4.83594C94.3594 4.83594 93.0703 5.82031 93.0938 7.48438C93.0703 9.17188 94.3594 10.1328 96.0469 10.1328C97.7344 10.1328 99.0234 9.17188 99.0469 7.48438C99.0234 5.82031 97.7578 4.83594 96.0469 4.83594ZM107.062 0.828125V22.2031H104.086V0.828125H107.062ZM89.2266 15.4062C93.0234 15.4297 98.2969 15.3594 102.867 14.7266L103.102 16.8828C98.3672 17.7969 93.3047 17.8438 89.5781 17.8438L89.2266 15.4062ZM7.35938 34.7031C7.35938 36.8125 8.57812 38.9219 11.2734 39.8125L9.9375 42.0625C8.05078 41.3945 6.76172 40.1641 6 38.6406C5.25 40.3164 3.94922 41.6641 1.99219 42.3906L0.632812 40.1875C3.30469 39.1797 4.52344 36.9766 4.52344 34.7031V34.5859H1.21875V32.2422H4.52344V30.0391H7.35938V32.2422H10.6406V34.5859H7.35938V34.7031ZM18.9609 29.8516V42.8828H16.125V37.6094H14.4141V42.8359H11.6016V30.1797H14.4141V35.1953H16.125V29.8516H18.9609ZM18.9609 43.7969V51.1562H15.9844V46.2109H4.21875V43.7969H18.9609ZM38.2969 29.8281V34.0703H41.1797V36.5547H38.2969V40.4922H35.2969V29.8281H38.2969ZM32.4609 30.6016C32.4609 36.3203 28.8047 39.7422 22.3594 41.0781L21.2578 38.6172C26.2969 37.668 28.7344 35.5 29.1094 33.0156H22.3359V30.6016H32.4609ZM38.2969 41.3125V47.1953H27.1172V48.5781H38.9062V50.9453H24.1875V44.9688H35.3203V43.6797H24.1406V41.3125H38.2969ZM60.0469 29.8281V51.1562H57.0234V29.8281H60.0469ZM54.7266 31.7969V34.1875H52.8281V43.4453C53.7656 43.3867 54.6914 43.293 55.5938 43.1875L55.7344 45.4141C51.1875 46.1641 46.2656 46.2344 42.3516 46.2578L42.0703 43.8203C42.8438 43.8203 43.6641 43.8086 44.5312 43.7969V34.1875H42.6562V31.7969H54.7266ZM47.4375 43.7266C48.2578 43.7148 49.0898 43.6797 49.9219 43.6328V34.1875H47.4375V43.7266ZM87.0469 29.8281V51.1562H84.1641V29.8281H87.0469ZM82.7344 30.25V50.1484H79.8984V40.2578H77.8359V37.5859H79.8984V30.25H82.7344ZM78.3281 32.2422V34.6562H76.9688V43.5156C77.5664 43.4688 78.1406 43.4102 78.6797 43.3281L78.8906 45.4844C75.5156 46.2109 71.1562 46.2812 68.4844 46.2812L68.1562 43.8203H69.9375V34.6562H68.5547V32.2422H78.3281ZM72.5859 43.7734C73.1367 43.75 73.6875 43.7383 74.25 43.7031V34.6562H72.5859V43.7734ZM106.992 29.8281V51.2031H103.969V29.8281H106.992ZM95.4141 31.3281C98.625 31.3281 101.016 34.2812 101.016 38.9219C101.016 43.6094 98.625 46.5391 95.4141 46.5391C92.1328 46.5391 89.7422 43.6094 89.7656 38.9219C89.7422 34.2812 92.1328 31.3281 95.4141 31.3281ZM95.4141 34.0234C93.75 34.0234 92.6484 35.7578 92.6484 38.9219C92.6484 42.1094 93.75 43.8203 95.4141 43.8203C97.0312 43.8203 98.1328 42.1094 98.1328 38.9219C98.1328 35.7578 97.0312 34.0234 95.4141 34.0234ZM118.148 35.6406C118.148 39.0859 119.906 42.7656 123.492 44.2656L121.875 46.6094C119.355 45.543 117.621 43.4219 116.672 40.8203C115.699 43.6445 113.93 45.9883 111.422 47.1484L109.711 44.7812C113.25 43.2109 115.078 39.25 115.078 35.6406V34.3281H110.555V31.8906H122.602V34.3281H118.148V35.6406ZM127.734 29.8281V51.1562H124.711V29.8281H127.734Z" fill="#6A58FF"/>
</svg>
