<svg width="117" height="259" viewBox="0 0 117 259" fill="none" xmlns="http://www.w3.org/2000/svg">
<g filter="url(#filter0_d_54_1827)">
<mask id="mask0_54_1827" style="mask-type:luminance" maskUnits="userSpaceOnUse" x="14" y="3" width="100" height="239">
<path d="M106.957 3H20.8647C17.0734 3 14 6.07464 14 9.86594V235.134C14 238.925 17.0734 242 20.8647 242H106.957C110.748 242 113.823 238.925 113.823 235.134V9.8672C113.823 6.07589 110.748 3.00125 106.957 3.00125V3ZM63.9109 24.9134C60.9565 24.9134 58.5622 22.5203 58.5622 19.5647C58.5622 16.6091 60.9553 14.216 63.9109 14.216C66.8665 14.216 69.2596 16.6116 69.2596 19.5647C69.2596 22.5178 66.864 24.9134 63.9109 24.9134Z" fill="white"/>
</mask>
<g mask="url(#mask0_54_1827)">
<path d="M205.106 0.306244H-45.4757V250.888H205.106V0.306244Z" fill="#6BCCBE"/>
<path d="M100.035 39.8581C109.449 39.8581 111.276 38.6202 111.276 37.0942C111.276 35.5681 109.449 34.3303 100.035 34.3303C94.4844 34.3303 87.5408 35.29 82.7735 36.0793C82.7609 36.0092 82.7471 35.9378 82.7321 35.8688C87.433 34.7513 94.2075 32.9496 99.3256 30.8033C108.007 27.1611 109.212 25.3131 108.622 23.9048C108.032 22.4965 105.868 22.063 97.1869 25.7052C92.0688 27.8527 86.0373 31.4248 81.9465 33.997C81.9165 33.9519 81.8864 33.9068 81.8551 33.8617C85.7842 31.0477 91.3722 26.8166 95.2975 22.8925C101.954 16.2358 102.371 14.0682 101.291 12.9882C100.211 11.9082 98.0452 12.3254 91.3872 18.9821C87.4618 22.9075 83.2308 28.4967 80.418 32.4246C80.3591 32.3833 80.299 32.3444 80.2388 32.3056C82.7735 28.191 86.2891 22.1282 88.3902 16.9888C91.9535 8.27477 91.4987 6.11475 90.0854 5.53716C88.6721 4.95957 86.8354 6.18241 83.2721 14.8964C81.1722 20.0333 79.4332 26.8228 78.3582 31.535C78.3056 31.5238 78.2517 31.515 78.1978 31.505C78.9859 26.7364 79.9469 19.7928 79.9469 14.2436C79.9469 4.82927 78.709 3.00253 77.183 3.00253C75.6569 3.00253 74.4191 4.82927 74.4191 14.2436C74.4191 19.794 75.3788 26.7376 76.1681 31.505C76.098 31.5175 76.0265 31.5313 75.9576 31.5463C74.84 26.8454 73.0384 20.0709 70.8921 14.9528C67.2499 6.27137 65.4019 5.06607 63.9936 5.65619C62.5853 6.24631 62.1518 8.41008 65.794 17.0915C67.9415 22.2096 71.5136 28.2411 74.0858 32.3319C74.0407 32.362 73.9956 32.392 73.9505 32.4221C71.1364 28.493 66.9054 22.905 62.9812 18.9796C56.3245 12.3229 54.157 11.9057 53.077 12.9857C51.997 14.0657 52.4142 16.232 59.0709 22.89C62.9963 26.8153 68.5855 31.0464 72.5134 33.8592C72.472 33.9181 72.4332 33.9782 72.3944 34.0383C68.2798 31.505 62.217 27.988 57.0775 25.8869C48.3636 22.3236 46.2035 22.7784 45.6259 24.1917C45.0484 25.605 46.2712 27.4418 54.9852 31.0051C60.1221 33.1049 66.9116 34.844 71.6238 35.919C71.6125 35.9716 71.6038 36.0255 71.5937 36.0793C66.8252 35.2913 59.8815 34.3303 54.3324 34.3303C44.918 34.3303 43.0913 35.5681 43.0913 37.0942C43.0913 38.6202 44.918 39.8581 54.3324 39.8581C59.8828 39.8581 66.8264 38.8984 71.5937 38.1091C71.6063 38.1792 71.6201 38.2494 71.6351 38.3195C66.9342 39.4371 60.1597 41.2388 55.0416 43.385C46.3601 47.0273 45.1548 48.8753 45.745 50.2836C46.3351 51.6918 48.4989 52.1253 57.1803 48.4831C62.2984 46.3357 68.3299 42.7636 72.4207 40.1914C72.4507 40.2365 72.4808 40.2816 72.5109 40.3267C68.5818 43.1407 62.9938 47.3718 59.0684 51.2959C52.4117 57.9526 51.9945 60.1202 53.0745 61.2002C54.1545 62.2802 56.3208 61.863 62.9787 55.2062C66.9041 51.2809 71.1352 45.6917 73.948 41.7638C74.0068 41.8051 74.067 41.844 74.1271 41.8828C71.5925 45.9974 68.0768 52.0602 65.9757 57.1996C62.4124 65.9136 62.8672 68.0736 64.2805 68.6512C65.6938 69.2288 67.5306 68.006 71.0938 59.292C73.1937 54.1551 74.9327 47.3655 76.0077 42.6534C76.0604 42.6646 76.1142 42.6734 76.1681 42.6834C75.38 47.452 74.4191 54.3956 74.4191 59.9448C74.4191 69.3591 75.6569 71.1859 77.183 71.1859C78.709 71.1859 79.9469 69.3591 79.9469 59.9448C79.9469 54.3944 78.9872 47.4507 78.1978 42.6834C78.268 42.6709 78.3394 42.6571 78.4083 42.6421C79.5259 47.343 81.3276 54.1175 83.4738 59.2356C87.116 67.917 88.9641 69.1223 90.3724 68.5322C91.7806 67.9421 92.2141 65.7783 88.5719 57.0969C86.4244 51.9788 82.8524 45.9473 80.2802 41.8565C80.3253 41.8264 80.3704 41.7964 80.4155 41.7663C83.2295 45.6954 87.4606 51.2834 91.3847 55.2088C98.0414 61.8655 100.209 62.2827 101.289 61.2027C102.369 60.1227 101.952 57.9564 95.295 51.2984C91.3697 47.3731 85.7804 43.142 81.8526 40.3292C81.8939 40.2703 81.9328 40.2102 81.9716 40.15C86.0862 42.6847 92.149 46.2003 97.2884 48.3015C106.002 51.8647 108.162 51.4099 108.74 49.9967C109.318 48.5834 108.095 46.7466 99.3808 43.1833C94.2438 41.0835 87.4543 39.3444 82.7421 38.2694C82.7534 38.2168 82.7622 38.1629 82.7722 38.1091C87.5408 38.8971 94.4844 39.8581 100.034 39.8581H100.035Z" fill="white"/>
<path d="M82.7974 38.0076C83.3002 34.9101 81.1968 31.9915 78.0992 31.4887C75.0017 30.9859 72.0831 33.0893 71.5803 36.1868C71.0775 39.2843 73.1809 42.2029 76.2785 42.7057C79.376 43.2085 82.2946 41.1051 82.7974 38.0076Z" fill="#FFB200"/>
<path d="M58.086 88.2417C58.086 83.6861 54.7796 78.9664 48.5 78.0906C52.3201 73.0301 51.3215 67.3557 48.1003 64.1345C44.8791 60.9132 39.2034 59.9147 34.1441 63.7348C33.2684 57.4552 28.5486 54.1488 23.9931 54.1488C19.4375 54.1488 14.7178 57.4552 13.842 63.7348C8.78149 59.9147 3.10706 60.9132 -0.114167 64.1345C-3.3354 67.3557 -4.33397 73.0314 -0.513845 78.0906C-6.79343 78.9664 -10.0999 83.6861 -10.0999 88.2417C-10.0999 92.7973 -6.79343 97.517 -0.513845 98.3928C-4.33397 103.453 -3.3354 109.128 -0.114167 112.349C3.10706 115.57 8.78274 116.569 13.842 112.749C14.7178 119.028 19.4375 122.335 23.9931 122.335C28.5486 122.335 33.2684 119.028 34.1441 112.749C39.2046 116.569 44.8791 115.57 48.1003 112.349C51.3215 109.128 52.3201 103.452 48.5 98.3928C54.7796 97.517 58.086 92.7973 58.086 88.2417Z" fill="white"/>
<path d="M33.2071 97.4564C38.2962 92.3673 38.2962 84.1162 33.2071 79.0271C28.118 73.938 19.8669 73.938 14.7778 79.0271C9.68866 84.1162 9.68865 92.3673 14.7778 97.4564C19.8669 102.546 28.118 102.546 33.2071 97.4564Z" fill="#FFB200"/>
<path d="M115.249 119.796C124.893 117.129 127.273 109.341 124.913 103.894C122.552 98.4492 115.241 94.8608 106.702 100.075C103.904 101.783 101.357 104.266 99.1866 106.854C100.695 103.835 101.958 100.514 102.413 97.2714C103.8 87.3622 97.6016 82.0811 91.6666 82.0811C85.7316 82.0811 79.5322 87.3622 80.9204 97.2714C81.374 100.515 82.6381 103.835 84.1466 106.854C81.9753 104.266 79.4294 101.783 76.6317 100.075C68.0906 94.8621 60.7799 98.4492 58.4207 103.894C56.0602 109.339 58.4407 117.128 68.0843 119.796C71.9834 120.875 76.4813 120.867 80.4994 120.465C77.0101 122.046 73.3929 124.141 70.7004 126.809C63.5939 133.853 65.3267 141.81 70.0489 145.406C74.7711 149.002 82.9025 148.554 87.8014 139.829C90.1105 135.716 91.183 130.456 91.6679 125.978C92.1527 130.455 93.2252 135.714 95.5343 139.829C100.433 148.554 108.565 149.002 113.287 145.406C118.009 141.81 119.742 133.854 112.635 126.809C109.944 124.141 106.326 122.046 102.836 120.465C106.853 120.867 111.352 120.875 115.251 119.796H115.249Z" fill="white"/>
<path d="M91.6652 124.924C97.0604 124.924 101.434 120.551 101.434 115.155C101.434 109.76 97.0604 105.386 91.6652 105.386C86.2699 105.386 81.8962 109.76 81.8962 115.155C81.8962 120.551 86.2699 124.924 91.6652 124.924Z" fill="#FFB200"/>
<path d="M63.9108 156.984C63.9108 154.992 61.7783 153.377 50.7903 153.377C49.6276 153.377 48.4123 153.418 47.1681 153.489C48.3434 153.075 49.4797 152.641 50.551 152.191C60.6833 147.938 62.0239 145.624 61.2521 143.786C60.4803 141.949 57.8893 141.285 47.757 145.539C46.8599 145.916 45.939 146.333 45.0081 146.78C45.7749 146.086 46.5091 145.393 47.1969 144.704C54.9675 136.934 55.3333 134.284 53.9238 132.875C52.5155 131.467 49.8656 131.833 42.0951 139.602C41.2732 140.424 40.4425 141.312 39.6143 142.243C40.1518 141.12 40.6492 140.009 41.089 138.933C45.2462 128.761 44.5571 126.176 42.7128 125.423C40.8685 124.669 38.5669 126.032 34.4097 136.204C34.0414 137.105 33.6856 138.051 33.3435 139.026C33.3949 137.994 33.4237 136.984 33.4237 136.01C33.4237 125.022 31.8087 122.89 29.8166 122.89C27.8245 122.89 26.2095 125.022 26.2095 136.01C26.2095 137.173 26.2508 138.388 26.3222 139.632C25.9075 138.458 25.474 137.321 25.0242 136.249C20.7706 126.117 18.4565 124.777 16.6184 125.548C14.7817 126.32 14.1176 128.911 18.3713 139.043C18.7484 139.941 19.1656 140.861 19.6129 141.792C18.9188 141.026 18.2259 140.291 17.5368 139.603C9.76627 131.833 7.11637 131.467 5.7081 132.877C4.29983 134.285 4.66568 136.935 12.435 144.705C13.2569 145.527 14.1452 146.358 15.0761 147.186C13.9522 146.649 12.8422 146.151 11.7659 145.711C1.59354 141.554 -0.991206 142.243 -1.7442 144.088C-2.49846 145.932 -1.13529 148.234 9.03708 152.391C9.93792 152.759 10.8839 153.115 11.8586 153.457C10.8262 153.406 9.81639 153.377 8.84288 153.377C-2.14514 153.377 -4.27759 154.992 -4.27759 156.984C-4.27759 158.976 -2.14514 160.591 8.84288 160.591C10.0056 160.591 11.2209 160.55 12.465 160.478C11.2898 160.893 10.1534 161.326 9.08219 161.776C-1.05009 166.03 -2.39071 168.344 -1.61891 170.182C-0.847122 172.019 1.74389 172.683 11.8762 168.429C12.7733 168.052 13.6941 167.635 14.6251 167.188C13.8583 167.882 13.1241 168.576 12.4362 169.264C4.66568 177.034 4.29983 179.684 5.70935 181.092C7.11762 182.501 9.76753 182.135 17.5381 174.365C18.36 173.544 19.1907 172.655 20.0188 171.724C19.4813 172.848 18.9839 173.958 18.5442 175.035C14.387 185.207 15.0761 187.792 16.9204 188.545C18.7647 189.298 21.0663 187.936 25.2234 177.763C25.5918 176.863 25.9476 175.917 26.2896 174.942C26.2383 175.974 26.2095 176.984 26.2095 177.958C26.2095 188.946 27.8245 191.078 29.8166 191.078C31.8087 191.078 33.4237 188.946 33.4237 177.958C33.4237 176.795 33.3824 175.58 33.311 174.335C33.7257 175.509 34.1592 176.647 34.609 177.718C38.8626 187.851 41.1767 189.191 43.0147 188.419C44.8515 187.648 45.5155 185.057 41.2619 174.924C40.8848 174.027 40.4676 173.106 40.0203 172.175C40.7144 172.942 41.4085 173.676 42.0964 174.364C49.8669 182.135 52.5168 182.501 53.9251 181.091C55.3333 179.683 54.9675 177.033 47.1982 169.262C46.3763 168.44 45.488 167.61 44.5571 166.782C45.6809 167.319 46.791 167.817 47.8673 168.256C58.0396 172.413 60.6244 171.724 61.3774 169.88C62.1304 168.036 60.7685 165.734 50.5961 161.577C49.6952 161.209 48.7493 160.853 47.7745 160.511C48.8069 160.562 49.8168 160.591 50.7903 160.591C61.7783 160.591 63.9108 158.976 63.9108 156.984Z" fill="white"/>
<path d="M29.8179 167.78C35.7806 167.78 40.6142 162.947 40.6142 156.984C40.6142 151.021 35.7806 146.188 29.8179 146.188C23.8553 146.188 19.0216 151.021 19.0216 156.984C19.0216 162.947 23.8553 167.78 29.8179 167.78Z" fill="#FFB200"/>
<path d="M120.428 199.446C120.288 196.722 117.445 193.66 108.011 195.139C100.595 196.301 92.7528 198.587 88.4352 200.218C92.4258 197.896 99.1664 193.239 104.727 188.234C111.823 181.845 111.243 177.709 109.219 175.883C107.194 174.056 103.018 173.902 97.3923 181.617C92.9708 187.683 89.0416 194.844 87.1422 199.052C88.3225 194.589 89.7947 186.529 90.1881 179.058C90.6892 169.523 87.354 167.007 84.6302 167.147C81.9063 167.288 78.8442 170.131 80.3227 179.565C81.4854 186.981 83.7707 194.823 85.4019 199.141C83.0803 195.15 78.4232 188.409 73.4179 182.849C67.0305 175.752 62.8934 176.333 61.0667 178.357C59.2399 180.382 59.0858 184.558 66.8013 190.183C72.8666 194.605 80.0282 198.534 84.2355 200.434C79.7726 199.253 71.7127 197.781 64.2416 197.388C54.7069 196.887 52.1911 200.222 52.3314 202.946C52.4717 205.669 55.3146 208.732 64.749 207.253C72.165 206.09 80.0069 203.805 84.3244 202.174C80.3339 204.495 73.5933 209.153 68.0329 214.158C60.9364 220.546 61.5165 224.682 63.5412 226.509C65.5659 228.336 69.7418 228.49 75.3674 220.774C79.7889 214.709 83.718 207.548 85.6175 203.34C84.4372 207.803 82.965 215.863 82.5716 223.334C82.0705 232.869 85.4057 235.385 88.1295 235.244C90.8534 235.104 93.9155 232.261 92.437 222.827C91.2743 215.411 88.989 207.569 87.3577 203.251C89.6794 207.242 94.3364 213.982 99.3418 219.543C105.73 226.639 109.866 226.059 111.693 224.035C113.52 222.01 113.674 217.834 105.958 212.208C99.8931 207.787 92.7315 203.858 88.5242 201.958C92.9871 203.139 101.047 204.611 108.518 205.004C118.053 205.505 120.569 202.17 120.428 199.446Z" fill="white"/>
<path d="M88.8145 206.337C91.6483 204.989 92.8528 201.599 91.5048 198.766C90.1568 195.932 86.7668 194.727 83.933 196.075C81.0992 197.423 79.8948 200.813 81.2428 203.647C82.5908 206.481 85.9808 207.685 88.8145 206.337Z" fill="#FFB200"/>
</g>
</g>
<defs>
<filter id="filter0_d_54_1827" x="-3" y="0" width="119.823" height="259" filterUnits="userSpaceOnUse" color-interpolation-filters="sRGB">
<feFlood flood-opacity="0" result="BackgroundImageFix"/>
<feColorMatrix in="SourceAlpha" type="matrix" values="0 0 0 0 0 0 0 0 0 0 0 0 0 0 0 0 0 0 127 0" result="hardAlpha"/>
<feOffset dx="-7" dy="7"/>
<feGaussianBlur stdDeviation="5"/>
<feColorMatrix type="matrix" values="0 0 0 0 0 0 0 0 0 0 0 0 0 0 0 0 0 0 0.25 0"/>
<feBlend mode="normal" in2="BackgroundImageFix" result="effect1_dropShadow_54_1827"/>
<feBlend mode="normal" in="SourceGraphic" in2="effect1_dropShadow_54_1827" result="shape"/>
</filter>
</defs>
</svg>
