<svg width="26" height="28" viewBox="0 0 26 28" fill="none" xmlns="http://www.w3.org/2000/svg">
<path d="M13.0428 23.1651V15.5006M3.46216 26.3582C3.46216 26.3582 5.37828 23.8042 13.0428 23.8042C20.7059 23.8042 23.899 26.3582 23.899 26.3582" stroke="#CACACA" stroke-width="2.8" stroke-linecap="round"/>
<path d="M2.44307 2.44364C3.71064 1.17608 7.30655 2.71757 10.4728 5.88514C13.6417 9.05405 15.1832 12.6486 13.9156 13.9148C12.6481 15.1824 9.05348 13.6423 5.88591 10.4747C2.71699 7.30578 1.17685 3.71121 2.44307 2.44364Z" stroke="#CACACA" stroke-width="2.8"/>
<path d="M13.1019 14.4359C14.7669 14.08 17.0134 12.7064 19.0772 10.6426C22.2461 7.47365 23.7863 3.87908 22.5187 2.61285C21.2511 1.34529 17.6566 2.88543 14.489 6.05435C13.87 6.67202 13.3127 7.30715 12.8267 7.93824" stroke="#CACACA" stroke-width="2.8" stroke-linecap="round"/>
</svg>
