<svg width="31" height="31" viewBox="0 0 31 31" fill="none" xmlns="http://www.w3.org/2000/svg">
<rect x="5" y="12" width="22" height="17" fill="#B4ACFF"/>
<path d="M16 1L26.3923 12.25H5.6077L16 1Z" fill="#B4ACFF"/>
<path d="M26.202 12.8485V23.4369H29.2272V12.8485H26.202ZM21.6641 27.9747H9.56312V31H21.6641V27.9747ZM5.02525 23.4369V12.8485H2.00001V23.4369H5.02525ZM9.56312 27.9747C8.09436 27.9747 7.14443 27.9717 6.4456 27.8779C5.78912 27.7887 5.58341 27.6465 5.46845 27.5315L3.3296 29.6704C4.10104 30.4418 5.05097 30.7428 6.04173 30.8759C6.99166 31.003 8.17907 31 9.56312 31V27.9747ZM2.00001 23.4369C2.00001 24.8209 1.99698 26.0098 2.12404 26.9583C2.25715 27.949 2.55816 28.9005 3.3296 29.6704L5.46845 27.5315C5.35349 27.4166 5.2113 27.2109 5.12206 26.5544C5.02828 25.8571 5.02525 24.9056 5.02525 23.4369H2.00001ZM26.202 23.4369C26.202 24.9056 26.1989 25.8556 26.1052 26.5544C26.0159 27.2109 25.8737 27.4166 25.7588 27.5315L27.8976 29.6704C28.669 28.8989 28.9701 27.949 29.1032 26.9583C29.2302 26.0083 29.2272 24.8209 29.2272 23.4369H26.202ZM21.6641 31C23.0481 31 24.2371 31.003 25.1855 30.8759C26.1762 30.7428 27.1277 30.4418 27.8976 29.6704L25.7588 27.5315C25.6438 27.6465 25.4381 27.7887 24.7816 27.8779C24.0828 27.9717 23.1329 27.9747 21.6641 27.9747V31Z" fill="#6A58FF"/>
<path d="M2 14.3611L11.3359 5.02524C13.3522 3.00892 14.3611 2 15.6136 2C16.8661 2 17.875 3.00892 19.8913 5.02524L29.2272 14.3611" stroke="#6A58FF" stroke-width="3" stroke-linecap="round"/>
<path d="M11.0757 23.4369C11.0757 22.0271 11.0757 21.3223 11.3056 20.7671C11.4576 20.3998 11.6806 20.0661 11.9617 19.785C12.2427 19.5039 12.5765 19.281 12.9438 19.129C13.4989 18.899 14.2038 18.899 15.6136 18.899C17.0233 18.899 17.7282 18.899 18.2833 19.129C18.6506 19.281 18.9844 19.5039 19.2654 19.785C19.5465 20.0661 19.7695 20.3998 19.9215 20.7671C20.1514 21.3223 20.1514 22.0271 20.1514 23.4369V29.4874H11.0757V23.4369ZM21.664 4.52913C21.664 3.82424 21.664 3.4718 21.779 3.19348C21.9328 2.82359 22.2271 2.52983 22.5973 2.37666C22.8757 2.26019 23.2281 2.26019 23.933 2.26019C24.6379 2.26019 24.9903 2.26019 25.2686 2.37515C25.6385 2.529 25.9323 2.8233 26.0854 3.19348C26.2019 3.4718 26.2019 3.82424 26.2019 4.52913V12.8485L21.664 7.55437V4.52913Z" fill="#6A58FF"/>
</svg>
