<svg width="120" height="259" viewBox="0 0 120 259" fill="none" xmlns="http://www.w3.org/2000/svg">
<g filter="url(#filter0_d_54_1516)">
<mask id="mask0_54_1516" style="mask-type:luminance" maskUnits="userSpaceOnUse" x="17" y="3" width="100" height="239">
<path d="M109.957 3H23.8647C20.0734 3 17 6.07464 17 9.86594V235.134C17 238.925 20.0734 242 23.8647 242H109.957C113.748 242 116.823 238.925 116.823 235.134V9.86594C116.823 6.07464 113.748 3 109.957 3ZM66.9109 24.9134C63.9565 24.9134 61.5622 22.5203 61.5622 19.5647C61.5622 16.6091 63.9553 14.216 66.9109 14.216C69.8665 14.216 72.2596 16.6116 72.2596 19.5647C72.2596 22.5178 69.864 24.9134 66.9109 24.9134Z" fill="white"/>
</mask>
<g mask="url(#mask0_54_1516)">
<path d="M199.871 2.27832H-160.795V242.723H199.871V2.27832Z" fill="#FDB0BF"/>
<path d="M59.9985 27.4995H25.8066V69.2677H59.9985V27.4995Z" fill="#FDC0CC"/>
<path d="M98.8025 27.4995H64.6106V69.2677H98.8025V27.4995Z" fill="#FDC0CC"/>
<path d="M59.9985 73.4211H25.8066V115.189H59.9985V73.4211Z" fill="#FDC0CC"/>
<path d="M98.8025 73.4211H64.6106V115.189H98.8025V73.4211Z" fill="#FDC0CC"/>
<path d="M59.9985 119.343H25.8066V161.111H59.9985V119.343Z" fill="#FDC0CC"/>
<path d="M98.8025 119.343H64.6106V161.111H98.8025V119.343Z" fill="#FDC0CC"/>
<path d="M145.532 27.4995H111.34V69.2677H145.532V27.4995Z" fill="#FDC0CC"/>
<path d="M145.532 73.4211H111.34V115.189H145.532V73.4211Z" fill="#FDC0CC"/>
<path d="M145.532 119.343H111.34V161.111H145.532V119.343Z" fill="#FDC0CC"/>
<path d="M32.6676 193.739C32.6501 193.724 32.635 193.703 32.6175 193.685L32.4546 193.266L32.4584 193.446C32.4396 193.41 32.4221 193.375 32.4045 193.336C31.8946 186.405 32.0474 179.381 33.472 172.764C33.903 170.762 34.4906 168.72 35.7084 167.345C36.925 165.971 38.9347 165.491 40.3004 166.78C41.2914 167.716 41.7274 169.365 41.6723 170.882C41.6172 172.4 41.1423 173.819 40.6211 175.166C38.2268 181.347 34.666 186.891 33.2477 193.526C33.0761 193.801 32.8819 193.928 32.6676 193.739Z" fill="#515C14"/>
<path d="M32.6802 193.873C32.7354 193.868 32.7767 193.811 32.7742 193.739C32.6389 189.435 34.1374 183.518 35.4178 179.312C36.8073 174.746 38.2482 171.157 38.2632 171.122C38.2895 171.057 38.2682 170.975 38.2143 170.939C38.1617 170.904 38.0966 170.927 38.0702 170.991C38.0552 171.028 36.6106 174.627 35.2174 179.204C33.9294 183.434 32.4221 189.389 32.5587 193.738C32.5612 193.812 32.6113 193.872 32.6702 193.873C32.6727 193.873 32.6765 193.873 32.679 193.873H32.6802Z" fill="#232148"/>
<path d="M32.5963 193.971C32.6139 193.956 32.6289 193.935 32.6464 193.917L32.8093 193.497L32.8056 193.678C32.8243 193.641 32.8419 193.606 32.8594 193.568C33.3694 186.636 33.2165 179.613 31.792 172.996C31.361 170.994 30.7733 168.952 29.5555 167.577C28.3389 166.203 26.3293 165.723 24.9636 167.012C23.9725 167.948 23.5365 169.597 23.5917 171.114C23.6468 172.631 24.1216 174.051 24.6429 175.398C27.0372 181.578 30.5979 187.123 32.0162 193.758C32.1879 194.032 32.3821 194.16 32.5963 193.971Z" fill="#897F1F"/>
<path d="M32.5836 194.105C32.5285 194.1 32.4871 194.042 32.4896 193.971C32.625 189.667 31.1265 183.75 29.846 179.544C28.4565 174.978 27.0157 171.389 27.0006 171.354C26.9743 171.288 26.9969 171.207 27.0495 171.171C27.1021 171.136 27.1673 171.159 27.1936 171.223C27.2086 171.26 28.6532 174.859 30.0465 179.436C31.3345 183.666 32.8417 189.621 32.7051 193.97C32.7026 194.044 32.6525 194.104 32.5936 194.105C32.5911 194.105 32.5874 194.105 32.5849 194.105H32.5836Z" fill="#232148"/>
<path d="M32.9568 193.688C32.9493 193.673 32.943 193.654 32.9367 193.638L32.9342 193.306L32.8891 193.431C32.8854 193.401 32.8828 193.372 32.8816 193.341C34.3412 188.429 36.2845 183.627 38.9958 179.437C39.8165 178.169 40.7561 176.915 41.9539 176.286C43.1529 175.656 44.6627 175.851 45.2679 177.097C45.7064 178.001 45.5761 179.252 45.1413 180.284C44.7066 181.317 44.0087 182.17 43.297 182.963C40.0307 186.598 36.1266 189.489 33.4128 193.694C33.2224 193.838 33.0558 193.876 32.9568 193.689V193.688Z" fill="#897F1F"/>
<path d="M32.9308 193.784C32.9697 193.796 33.0135 193.767 33.0311 193.717C34.0635 190.715 36.6432 187.026 38.6266 184.461C40.7778 181.677 42.7098 179.579 42.7299 179.558C42.7649 179.52 42.7712 179.457 42.7436 179.418C42.7161 179.38 42.666 179.38 42.6309 179.418C42.6121 179.44 40.6738 181.543 38.5163 184.335C36.5229 186.915 33.9269 190.627 32.8832 193.66C32.8657 193.712 32.8832 193.767 32.9246 193.782C32.9271 193.782 32.9283 193.783 32.9308 193.784Z" fill="#232148"/>
<path d="M32.3607 193.688C32.3682 193.673 32.3745 193.654 32.3808 193.638L32.3833 193.306L32.4284 193.431C32.4321 193.401 32.4346 193.372 32.4359 193.341C30.9763 188.429 29.033 183.627 26.3217 179.437C25.501 178.169 24.5614 176.915 23.3636 176.286C22.1645 175.656 20.6548 175.851 20.0496 177.097C19.6111 178.001 19.7414 179.252 20.1762 180.284C20.6109 181.317 21.3088 182.17 22.0205 182.963C25.2868 186.598 29.1909 189.489 31.9047 193.694C32.0951 193.838 32.2617 193.876 32.3607 193.689V193.688Z" fill="#515C14"/>
<path d="M32.387 193.784C32.3481 193.796 32.3043 193.767 32.2867 193.717C31.2544 190.715 28.6746 187.026 26.6913 184.461C24.54 181.677 22.608 179.579 22.588 179.558C22.5529 179.52 22.5466 179.457 22.5742 179.418C22.6018 179.38 22.6519 179.38 22.687 179.418C22.7058 179.44 24.644 181.543 26.8015 184.335C28.7949 186.915 31.3909 190.627 32.4346 193.66C32.4521 193.712 32.4346 193.767 32.3933 193.782C32.3908 193.782 32.3895 193.783 32.387 193.784Z" fill="#232148"/>
<path d="M26.5271 190.815V200.346C26.5271 202.488 28.6533 204.241 31.2531 204.241H34.7111C37.3109 204.241 39.4371 202.488 39.4371 200.346V190.815H26.5271Z" fill="white"/>
<path d="M39.4371 189.053H26.5271V191.494H39.4371V189.053Z" fill="#7D2345"/>
<path d="M26.7664 201.557C27.3891 203.111 29.167 204.241 31.2531 204.241H34.7111C36.7972 204.241 38.5763 203.111 39.1978 201.557H26.7651H26.7664Z" fill="#7D2345"/>
<g style="mix-blend-mode:multiply" opacity="0.3">
<path d="M36.3161 189.053C36.8047 192.307 37.0327 195.476 36.4965 198.768C36.1908 200.64 35.6608 202.447 35.0043 204.227C37.4687 204.101 39.4383 202.406 39.4383 200.345V189.053H36.3173H36.3161Z" fill="#7D2345"/>
</g>
<path d="M104.068 126.736C102.458 127.874 100.317 128.188 98.3626 127.378C96.4056 126.569 95.1126 124.835 94.7768 122.892C92.8548 123.326 90.7612 122.797 89.2665 121.304C87.7693 119.809 87.2343 117.718 87.6653 115.797C85.722 115.464 83.988 114.172 83.1774 112.221C82.363 110.264 82.6724 108.122 83.8101 106.512C82.1437 105.46 81.0386 103.604 81.0361 101.491C81.0336 99.3763 82.1349 97.5195 83.7988 96.4658C82.6586 94.8559 82.3429 92.7146 83.1548 90.7563C83.9629 88.7993 85.6944 87.5063 87.6377 87.1705C87.2017 85.2485 87.7304 83.1549 89.2239 81.6577C90.7149 80.1605 92.8085 79.6255 94.7304 80.054C95.0599 78.1107 96.3517 76.3767 98.3037 75.5623C100.258 74.7479 102.399 75.0574 104.013 76.1925C105.064 74.5286 106.917 73.4211 109.034 73.4186C111.149 73.4123 113.005 74.5149 114.059 76.175C115.669 75.0348 117.81 74.7191 119.769 75.5272C121.723 76.3353 123.021 78.0669 123.357 80.0064C125.276 79.5729 127.372 80.0978 128.87 81.5925C130.367 83.0835 130.904 85.1784 130.477 87.0991C132.42 87.4261 134.154 88.7153 134.971 90.6699C135.786 92.6244 135.479 94.7656 134.345 96.3794C136.009 97.4281 137.119 99.2811 137.123 101.396V101.437V101.459C137.123 103.574 136.018 105.43 134.354 106.482C135.494 108.092 135.806 110.233 134.995 112.191C134.185 114.146 132.449 115.437 130.507 115.773C130.941 117.693 130.41 119.786 128.915 121.283C127.418 122.777 125.326 123.309 123.405 122.878C123.071 124.822 121.779 126.556 119.825 127.366C117.87 128.181 115.729 127.869 114.115 126.731C113.064 128.395 111.21 129.5 109.095 129.503C106.98 129.503 105.123 128.4 104.07 126.737L104.068 126.736Z" fill="#FD859C"/>
<path d="M55.428 70.2938C54.4206 71.0055 53.0813 71.2022 51.8584 70.6947C50.6343 70.1898 49.8249 69.1035 49.6157 67.8882C48.4129 68.1601 47.1036 67.8281 46.169 66.8947C45.2318 65.96 44.8985 64.652 45.1679 63.4492C43.9526 63.2412 42.8675 62.4331 42.3601 61.2115C41.8514 59.9874 42.0444 58.6468 42.756 57.6394C41.7136 56.9816 41.022 55.8202 41.0208 54.4984C41.0195 53.1753 41.7086 52.0139 42.7485 51.3548C42.0356 50.3475 41.8376 49.0081 42.3451 47.7828C42.8512 46.5587 43.9338 45.7493 45.1491 45.5401C44.8759 44.3373 45.2067 43.028 46.1414 42.0908C47.0736 41.1536 48.3841 40.8204 49.5869 41.0872C49.7936 39.8719 50.6017 38.7869 51.8221 38.277C53.0449 37.7683 54.3843 37.9612 55.3941 38.6704C56.0519 37.6292 57.2109 36.9363 58.5339 36.9351C59.857 36.9313 61.0184 37.6204 61.6775 38.6591C62.6848 37.9462 64.0242 37.7482 65.2495 38.2544C66.4724 38.7593 67.2842 39.8431 67.4947 41.0572C68.695 40.7853 70.0068 41.1148 70.944 42.0495C71.8812 42.9829 72.2169 44.2922 71.9488 45.495C73.1641 45.6992 74.2491 46.5061 74.7603 47.7289C75.269 48.9518 75.0786 50.2911 74.3682 51.301C75.4093 51.9575 76.1035 53.1164 76.106 54.4395V54.4658V54.4783C76.106 55.8014 75.4144 56.9629 74.3744 57.6206C75.0874 58.628 75.2828 59.9673 74.7754 61.1927C74.2679 62.4155 73.1829 63.2236 71.9676 63.4341C72.2395 64.6344 71.9062 65.945 70.9715 66.8809C70.0344 67.8156 68.7263 68.1476 67.5248 67.8782C67.3168 69.0935 66.5087 70.1785 65.2858 70.686C64.063 71.1947 62.7236 71.0005 61.7138 70.2888C61.056 71.33 59.8958 72.0203 58.5728 72.0228C57.2497 72.0228 56.0882 71.3337 55.4292 70.2926L55.428 70.2938Z" fill="#FD859C"/>
<path d="M76.2164 139.189C76.2164 139.189 73.48 176.042 87.0954 201.027" stroke="#232148" stroke-width="2" stroke-miterlimit="10"/>
<path d="M65.4288 127.88L68.7077 135.162L66.8521 127.926L69.7338 128.02L72.9576 137.594L71.5293 128.079L74.0088 128.161L74.8582 131.229L74.6164 128.181L76.7739 128.251L78.216 136.142L78.4729 128.306L83.4256 128.469L82.2717 136.275L84.9579 128.519L87.1668 128.592L86.9162 130.812L87.8396 128.614L90.9093 128.714C90.6499 136.63 84.022 142.837 76.1061 142.578C68.1903 142.319 61.9834 135.691 62.2427 127.775L65.4288 127.879V127.88Z" fill="#FD4267"/>
<path d="M70.7137 150.82C73.306 153.825 74.8132 157.098 74.9022 159.471C72.5693 159.035 69.551 157.064 66.9587 154.06C64.3665 151.054 62.8592 147.781 62.7703 145.408C65.1032 145.844 68.1214 147.815 70.7137 150.82Z" fill="#897F1F"/>
<path d="M81.6527 158.465C83.7288 155.082 86.3899 152.651 88.6226 151.846C88.9158 154.201 87.9561 157.675 85.88 161.058C83.8039 164.441 81.1428 166.872 78.9101 167.677C78.6169 165.322 79.5766 161.848 81.6527 158.465Z" fill="#897F1F"/>
<path d="M135.897 209.531C148.89 196.538 148.89 175.472 135.897 162.479C122.904 149.486 101.838 149.486 88.8445 162.479C75.8514 175.472 75.8514 196.538 88.8445 209.531C101.838 222.524 122.904 222.524 135.897 209.531Z" fill="#897F1F"/>
<path d="M98.0471 212.119C107.738 202.428 107.738 186.716 98.0471 177.025C88.3562 167.334 72.6441 167.334 62.9532 177.025C53.2623 186.716 53.2623 202.428 62.9532 212.119C72.6441 221.81 88.3562 221.81 98.0471 212.119Z" fill="#897F1F"/>
<path d="M66.0383 214.43C71.7562 208.712 71.7562 199.441 66.0383 193.723C60.3205 188.006 51.05 188.006 45.3321 193.723C39.6142 199.441 39.6142 208.712 45.3321 214.43C51.05 220.147 60.3204 220.147 66.0383 214.43Z" fill="#897F1F"/>
<path d="M21.7774 249.359C29.7612 248.076 35.1933 240.564 33.9102 232.58C32.6271 224.596 25.1148 219.164 17.1309 220.447C9.1471 221.73 3.71508 229.243 4.99817 237.227C6.28126 245.21 13.7936 250.642 21.7774 249.359Z" fill="#897F1F"/>
<path d="M43.7859 254.795C57.7912 254.795 69.1448 243.441 69.1448 229.436C69.1448 215.43 57.7912 204.077 43.7859 204.077C29.7806 204.077 18.427 215.43 18.427 229.436C18.427 243.441 29.7806 254.795 43.7859 254.795Z" fill="#897F1F"/>
<path d="M19.4543 249.542H145.642V186.005H112.371L42.1759 214.045L19.4543 249.542Z" fill="#897F1F"/>
<path d="M101.907 176.385C101.907 176.385 106.423 213.063 124.656 234.906" stroke="#FDB0BF" stroke-width="2" stroke-miterlimit="10"/>
<path d="M89.1175 167.401L93.7558 173.902L90.522 167.169L93.3674 166.699L98.3991 175.458L95.1403 166.406L97.5872 166.001L99.0193 168.844L98.1861 165.902L100.315 165.55L103.27 173.007L101.991 165.273L106.88 164.465L107.273 172.346L108.394 164.214L110.574 163.854L110.762 166.08L111.239 163.745L114.268 163.243C115.56 171.058 110.273 178.44 102.458 179.732C94.6441 181.023 87.262 175.736 85.9702 167.922L89.1163 167.402L89.1175 167.401Z" fill="#FDB0BF"/>
<path d="M98.7824 188.867C101.912 191.307 104.03 194.224 104.581 196.533C102.207 196.561 98.8625 195.219 95.7328 192.778C92.603 190.338 90.4856 187.421 89.9343 185.112C92.3086 185.084 95.6526 186.426 98.7824 188.867Z" fill="#FDB0BF"/>
<path d="M111.004 194.227C112.379 190.503 114.514 187.6 116.546 186.373C117.294 188.626 117.031 192.221 115.657 195.944C114.282 199.668 112.147 202.571 110.115 203.798C109.367 201.545 109.63 197.95 111.004 194.227Z" fill="#FDB0BF"/>
<path d="M139.554 248.241C139.554 248.143 139.562 248.046 139.562 247.949C139.562 237.511 136.249 227.855 130.631 219.951L119.221 226.188C119.221 226.188 125.29 219.76 128.178 216.786C120.562 207.75 109.705 201.533 97.3915 199.946L94.3507 207.795L94.8619 199.688C93.6328 199.594 92.3962 199.531 91.1433 199.531C83.4016 199.531 76.0858 201.353 69.597 204.584L71.3812 211.25L67.645 205.61C61.6786 208.929 56.4866 213.47 52.4084 218.898L60.759 227.397L49.7597 222.803C45.2968 230.132 42.7246 238.74 42.7246 247.949C42.7246 248.046 42.7309 248.143 42.7321 248.241H139.553H139.554Z" fill="#515C14"/>
<path d="M137.11 232.735L94.6753 246.482L134.359 226.118C134.157 225.72 133.96 225.318 133.749 224.925L91.8362 247.233L112.651 204.568C111.943 204.216 111.225 203.881 110.498 203.564L91.4528 246.499V199.538C91.3501 199.538 91.2486 199.53 91.1458 199.53C91.0431 199.53 90.9416 199.538 90.8389 199.538V245.699L78.4639 201.219C77.9565 201.357 77.4503 201.496 76.9504 201.649L90.3164 246.249L63.3738 208.297C63.206 208.415 63.0393 208.532 62.8739 208.653L86.5852 242.053L60.2015 210.712C60.0436 210.844 59.8933 210.982 59.7379 211.115L90.1573 247.248L45.9208 230.657C45.6903 231.259 45.4748 231.868 45.2681 232.482L91.0444 248.237L91.1483 247.948L91.2436 248.239L137.311 233.316C137.249 233.121 137.178 232.929 137.114 232.735H137.11Z" fill="#232148"/>
<path d="M91.1445 256.769C96.0159 256.769 99.9649 252.82 99.9649 247.949C99.9649 243.077 96.0159 239.128 91.1445 239.128C86.273 239.128 82.324 243.077 82.324 247.949C82.324 252.82 86.273 256.769 91.1445 256.769Z" fill="#232148"/>
<path d="M199.871 220.499H-160.795V242.722H199.871V220.499Z" fill="#FD859C"/>
<path d="M24.6803 220.499V242.722" stroke="#FDB0BF" stroke-width="0.75" stroke-miterlimit="10"/>
<path d="M34.9642 220.499V242.722" stroke="#FDB0BF" stroke-width="0.75" stroke-miterlimit="10"/>
<path d="M45.2493 220.499V242.722" stroke="#FDB0BF" stroke-width="0.75" stroke-miterlimit="10"/>
<path d="M55.5332 220.499V242.722" stroke="#FDB0BF" stroke-width="0.75" stroke-miterlimit="10"/>
<path d="M65.8184 220.499V242.722" stroke="#FDB0BF" stroke-width="0.75" stroke-miterlimit="10"/>
<path d="M76.1023 220.499V242.722" stroke="#FDB0BF" stroke-width="0.75" stroke-miterlimit="10"/>
<path d="M86.3872 220.499V242.722" stroke="#FDB0BF" stroke-width="0.75" stroke-miterlimit="10"/>
<path d="M96.6711 220.499V242.722" stroke="#FDB0BF" stroke-width="0.75" stroke-miterlimit="10"/>
<path d="M106.955 220.499V242.722" stroke="#FDB0BF" stroke-width="0.75" stroke-miterlimit="10"/>
<path d="M-160.795 223.766H199.871" stroke="#FDB0BF" stroke-width="0.75" stroke-miterlimit="10"/>
<path d="M-160.795 227.688H199.871" stroke="#FDB0BF" stroke-width="0.75" stroke-miterlimit="10"/>
<path d="M-160.795 231.611H199.871" stroke="#FDB0BF" stroke-width="0.75" stroke-miterlimit="10"/>
<path d="M-160.795 235.533H199.871" stroke="#FDB0BF" stroke-width="0.75" stroke-miterlimit="10"/>
<path d="M-160.795 239.455H199.871" stroke="#FDB0BF" stroke-width="0.75" stroke-miterlimit="10"/>
<path d="M91.642 152.529C96.7577 152.754 98.8651 155.457 99.474 161.097C100.082 166.738 112.89 165.967 107.945 176.344C103 186.72 88.9871 178.047 86.7319 172.817C84.4766 167.588 88.2003 166.001 91.0807 162.215C93.9612 158.428 91.642 152.527 91.642 152.527V152.529Z" fill="#232148"/>
<path d="M85.4377 159.69C84.5807 156.612 86.2772 153.292 90.0096 152.639C94.7431 151.812 97.9731 155.792 96.6412 160.485L92.8437 165.913L85.4377 159.691V159.69Z" fill="#232148"/>
<path d="M103.879 202.82L108.447 199.379" stroke="black" stroke-width="0.99" stroke-miterlimit="10"/>
<path d="M40.4558 208.846L29.791 218.427C28.6722 219.433 27.3378 220.169 25.8932 220.588C21.7185 221.798 17.9385 223.051 15.3838 224.434C15.117 224.578 14.9065 224.806 14.7862 225.086C14.4028 225.973 15.053 226.963 16.019 226.963H34.1449C35.0532 226.963 35.7912 226.237 35.8125 225.33C35.8313 224.532 35.7987 223.51 35.6221 222.417L46.7441 215.267L40.4545 208.846H40.4558Z" fill="white"/>
<mask id="mask1_54_1516" style="mask-type:luminance" maskUnits="userSpaceOnUse" x="14" y="208" width="33" height="19">
<path d="M40.4558 208.846L29.791 218.427C28.6722 219.433 27.3378 220.169 25.8932 220.588C21.7185 221.798 17.9385 223.051 15.3838 224.434C15.117 224.578 14.9065 224.806 14.7862 225.086C14.4028 225.973 15.053 226.963 16.019 226.963H34.1449C35.0532 226.963 35.7912 226.237 35.8125 225.33C35.8313 224.532 35.7987 223.51 35.6221 222.417L46.7441 215.267L40.4545 208.846H40.4558Z" fill="white"/>
</mask>
<g mask="url(#mask1_54_1516)">
<path d="M41.5207 220.105C41.2738 220.037 41.0283 219.965 40.7815 219.893C40.8529 219.859 40.9243 219.825 40.9919 219.786C41.1423 219.7 41.0421 219.436 40.8704 219.499C40.685 219.567 40.5071 219.663 40.3329 219.756C39.3506 219.45 38.3846 219.094 37.4713 218.62C36.8172 218.279 36.2008 217.88 35.6245 217.419C35.0043 216.922 34.4041 216.398 33.794 215.888C33.5008 215.641 33.2064 215.395 32.9107 215.15C32.922 215.143 32.9332 215.135 32.9458 215.128C33.0222 215.084 33.1061 215.061 33.1838 215.022C33.3254 214.952 33.2527 214.733 33.1061 214.733C32.9382 214.733 32.7829 214.832 32.6526 214.938C32.3368 214.682 32.0173 214.429 31.6916 214.185C31.6152 214.129 31.5262 214.251 31.5914 214.316C31.872 214.591 32.1627 214.86 32.4559 215.123C32.3619 215.219 32.2717 215.321 32.1878 215.423C32.0637 215.574 31.9372 215.723 31.8119 215.872C31.7016 215.762 31.5863 215.656 31.4773 215.544C31.1904 215.245 30.9261 214.918 30.6091 214.652C30.4825 214.546 30.2746 214.679 30.3698 214.837C30.5627 215.158 30.8246 215.428 31.0814 215.699C31.2355 215.862 31.3984 216.017 31.5588 216.175C31.4748 216.275 31.3909 216.376 31.307 216.476C31.2355 216.562 31.3508 216.683 31.4322 216.601C31.5237 216.508 31.6152 216.416 31.7066 216.323C31.7643 216.379 31.8194 216.438 31.8783 216.493C32.4108 216.998 32.9708 217.473 33.5522 217.922C34.7274 218.826 35.9953 219.613 37.341 220.238C37.772 220.439 38.2142 220.638 38.6653 220.807C38.6302 220.833 38.5926 220.858 38.5575 220.886C38.4711 220.954 38.5826 221.092 38.6741 221.036C38.753 220.989 38.8332 220.942 38.9121 220.896C39.1602 220.983 39.4095 221.059 39.6614 221.118C39.7741 221.144 39.8606 220.974 39.744 220.921C39.5787 220.845 39.412 220.772 39.2441 220.699C39.4333 220.59 39.6225 220.483 39.8155 220.377C39.9733 220.292 40.1337 220.211 40.2941 220.129C40.6687 220.247 41.0458 220.357 41.4242 220.463C41.6547 220.528 41.7537 220.168 41.5232 220.104L41.5207 220.105Z" fill="#7D2345"/>
</g>
<path d="M34.5081 214.981C35.4466 215.896 36.4464 216.756 37.5627 217.449C38.5864 218.085 39.6664 218.63 40.7739 219.106L46.7453 215.267L40.4557 208.846L34.0922 214.563C34.23 214.703 34.3678 214.843 34.5081 214.981Z" fill="#DE6868"/>
<path d="M32.9746 220.696C33.4156 221.623 32.8418 222.991 31.6941 223.168" stroke="#FDB0BF" stroke-width="1.98" stroke-linecap="round" stroke-linejoin="round"/>
<path d="M40.4556 208.846L37.9686 211.081C37.495 211.507 37.505 212.246 37.9811 212.668C39.1789 213.732 40.0234 215.153 40.4919 216.953C40.7488 217.939 41.8964 218.385 42.7534 217.834L46.7452 215.268L40.4556 208.847V208.846Z" fill="#C73B3B"/>
<path d="M94.2331 205.742L77.0569 189.938C71.9538 185.243 64.0831 185.313 59.0652 190.098L37.8296 210.349L47.7163 218.752C47.7163 218.752 51.4236 216.369 52.8357 213.986C57.6017 212.221 59.986 208.207 59.986 208.207C59.986 208.207 64.1858 206.395 66.5187 203.747L79.4951 220.696L94.2343 205.742H94.2331Z" fill="#232148"/>
<path d="M91.3615 206.97C91.161 207.311 90.9505 207.725 90.7663 208.208C86.1105 207.182 81.704 206.848 77.5018 207.088C72.5127 207.371 68.5247 211.346 68.1801 216.33C67.783 222.08 72.3398 226.964 78.1032 226.964H110.683C114.187 226.964 117.325 224.707 118.347 221.356C118.712 220.154 118.951 218.735 118.951 217.077C118.951 209.883 112.771 204.631 112.771 204.631L93.296 205.798C92.4966 205.846 91.7662 206.28 91.3602 206.97H91.3615Z" fill="#7D2345"/>
<path d="M91.3615 206.97C91.161 207.311 90.9505 207.725 90.7663 208.208C86.1105 207.182 81.704 206.848 77.5018 207.088C72.5127 207.371 68.5247 211.346 68.1801 216.33C67.783 222.08 72.3398 226.964 78.1032 226.964H110.683C114.187 226.964 117.325 224.707 118.347 221.356C118.712 220.154 118.951 218.735 118.951 217.077C118.951 209.883 112.771 204.631 112.771 204.631L93.296 205.798C92.4966 205.846 91.7662 206.28 91.3602 206.97H91.3615Z" fill="#7D2345"/>
<path d="M90.3916 207.885L110.897 211.428" stroke="#232148" stroke-width="1.98" stroke-linecap="round" stroke-linejoin="round"/>
<path d="M104.162 210.35L110.477 209" stroke="#232148" stroke-width="1.98" stroke-linecap="round" stroke-linejoin="round"/>
<path d="M85.3687 188.323L80.0977 200.332C79.356 202.022 77.6846 203.113 75.8391 203.113H50.7183V199.379L72.1405 195.734C72.564 195.662 72.9286 195.397 73.1278 195.016L81.8994 178.297C83.354 175.524 85.6769 173.297 88.5236 171.991C89.2114 171.675 89.9205 171.381 90.646 171.103L85.3675 188.322L85.3687 188.323Z" fill="#DE6868"/>
<path d="M77.5092 188.166C78.4226 188.621 79.2796 189.189 80.099 189.794C80.8933 190.38 81.6726 190.989 82.4231 191.632C82.7877 191.944 83.1448 192.265 83.4931 192.595L85.3687 188.323L90.6472 171.104C89.9205 171.382 89.2127 171.678 88.5248 171.992C85.6782 173.298 83.3553 175.526 81.9007 178.298L76.8752 187.878C77.0895 187.968 77.3025 188.065 77.5105 188.168L77.5092 188.166Z" fill="white"/>
<path d="M66.614 196.674L50.717 199.379V203.113H75.8379C77.6834 203.113 79.3548 202.022 80.0965 200.332L81.293 197.606C81.6413 196.813 80.8282 195.996 80.0401 196.355C77.7385 197.405 74.7265 197.93 72.2896 197.145C70.4541 196.552 68.5146 196.35 66.6127 196.675L66.614 196.674Z" fill="#C73B3B"/>
<path d="M101.099 170.778L107.719 173.624L111.846 189.377C111.647 192.62 111.427 199.246 111.427 199.246C111.427 199.246 114.673 201.765 114.037 204.484C113.844 205.305 113.083 205.866 112.24 205.866H93.024C92.5153 205.866 92.0705 205.524 91.9415 205.032L89.2339 194.774C88.942 193.668 88.1577 192.774 87.1291 192.272C82.9982 190.251 82.5347 184.612 85.9388 179.187L87.5926 173.293C87.7768 172.635 88.2379 172.086 88.8568 171.799C89.4294 171.534 90.0283 171.307 90.646 171.103L101.098 170.778H101.099Z" fill="white"/>
<path d="M93.5879 191.183C95.6891 190.567 98.1435 189.501 100.305 187.659L98.8965 195.67C98.8965 195.67 96.3155 195.295 93.5253 194.394C91.9504 193.886 92.0005 191.649 93.5879 191.183Z" fill="#FDB0BF"/>
<path d="M104.051 203.741C106.914 203.209 109.073 200.837 109.303 197.935L109.862 190.909L106.163 188.704L90.7476 200.512L91.9403 205.033C92.0706 205.524 92.5142 205.867 93.0228 205.867H97.1073C99.1333 204.925 101.456 204.224 104.05 203.742L104.051 203.741Z" fill="#FDB0BF"/>
<path d="M103.615 186.772C103.015 185.967 102.461 185.128 101.833 184.344C101.526 183.96 101.204 183.578 100.842 183.245C100.491 182.923 100.107 182.641 99.7521 182.324C98.4002 185.922 97.2362 190.046 96.1086 193.558C95.8793 194.272 95.3068 194.822 94.5863 195.027L75.2565 200.526L74.0474 200.33C72.0377 200.003 69.9742 200.392 68.2289 201.44C67.1088 202.112 66.1014 202.885 65.1943 203.749H96.8491C99.9413 203.749 102.728 201.882 103.904 199.023L107.203 191.007C106.086 189.528 104.722 188.258 103.615 186.773V186.772Z" fill="#DE6868"/>
<path d="M68.9893 201.872L66.9822 203.527" stroke="#C73B3B" stroke-width="1.98" stroke-linecap="round" stroke-linejoin="round"/>
<path d="M70.2748 201.872L68.2664 203.527" stroke="#C73B3B" stroke-width="1.98" stroke-linecap="round" stroke-linejoin="round"/>
<path d="M71.5604 201.872L69.552 203.527" stroke="#C73B3B" stroke-width="1.98" stroke-linecap="round" stroke-linejoin="round"/>
<path d="M70.8362 203.527L71.8398 202.7C71.8398 202.7 73.4021 203.616 75.5872 202.888" stroke="#C73B3B" stroke-width="1.98" stroke-linecap="round" stroke-linejoin="round"/>
<path d="M106.781 173.427C101.859 173.428 99.0027 184.359 96.4092 192.613C97.0945 192.674 97.7749 192.778 98.4452 192.941C99.7432 193.254 101.002 193.763 102.13 194.481C103.107 195.102 103.978 195.879 104.732 196.756C104.756 196.784 104.779 196.814 104.802 196.843L107.609 190.024C107.609 190.024 109.815 192.099 111.824 189.914C112.882 177.732 109.241 173.428 106.781 173.43V173.427Z" fill="white"/>
<path d="M109.862 190.909L110.17 187.219C110.234 186.46 109.179 186.206 108.89 186.91L107.609 190.022C107.609 190.022 108.603 190.954 109.862 190.909Z" fill="#FDB0BF"/>
<path d="M95.6051 163.41L97.8628 168.242C98.1798 168.922 98.7073 169.482 99.3663 169.839L101.099 170.778C98.815 175.843 95.7805 180.411 91.5657 179.611C86.4601 178.643 90.6473 171.103 90.6473 171.103L91.7649 170.613L90.5396 167.104L95.6051 163.41Z" fill="#DE6868"/>
<path d="M90.5396 167.104L91.9265 171.077C92.1846 171.816 93.123 172.068 93.6956 171.534C95.4472 169.9 96.0135 167.493 95.1803 164.704L90.5396 167.105V167.104Z" fill="#C73B3B"/>
<path d="M93.658 175.39L96.6411 173.427" stroke="#C73B3B" stroke-width="1.98" stroke-linecap="round" stroke-linejoin="round"/>
<path d="M87.9685 155.552C90.9492 154.939 90.6059 157.84 92.6331 158.906C92.9764 159.086 93.2345 159.396 93.3172 159.775L93.5878 161.022C93.6692 161.395 94.1666 161.476 94.3608 161.146L95.1928 159.734C95.5887 159.061 96.5083 158.933 97.0734 159.472C97.5044 159.883 97.5733 160.546 97.2362 161.037L95.516 163.54C95.0311 166.409 92.2685 168.615 89.4444 167.908C86.6191 167.201 86.8221 163.894 86.8221 163.894C86.8221 163.894 85.9588 161.622 85.5178 160.033C85.0768 158.445 85.5454 156.05 87.9697 155.552H87.9685Z" fill="#DE6868"/>
<path d="M93.2836 163.067C93.2836 163.753 92.7273 164.308 92.0419 164.308C91.3566 164.308 90.8003 163.752 90.8003 163.067C90.8003 162.381 91.3566 161.825 92.0419 161.825C92.7273 161.825 93.2836 162.381 93.2836 163.067Z" fill="#DB4E4E"/>
<path d="M87.317 162.267C87.6402 162.267 87.9021 162.005 87.9021 161.682C87.9021 161.359 87.6402 161.097 87.317 161.097C86.9939 161.097 86.7319 161.359 86.7319 161.682C86.7319 162.005 86.9939 162.267 87.317 162.267Z" fill="#232148"/>
<path d="M91.2562 160.844C91.2562 161.167 90.9943 161.429 90.6711 161.429C90.3478 161.429 90.0859 161.167 90.0859 160.844C90.0859 160.521 90.3478 160.259 90.6711 160.259C90.9943 160.259 91.2562 160.521 91.2562 160.844Z" fill="#232148"/>
<path d="M88.6526 160.93C88.6526 160.93 89.1112 161.46 89.031 161.94C88.9508 162.42 88.4534 163.54 88.917 163.651C89.3805 163.761 90.0095 163.297 90.0095 163.297" stroke="#C73B3B" stroke-width="1.98" stroke-linecap="round" stroke-linejoin="round"/>
<path d="M89.031 164.588C89.6462 164.787 90.9041 164.566 91.5982 163.667" stroke="#C73B3B" stroke-width="1.98" stroke-linecap="round" stroke-linejoin="round"/>
<path d="M89.5034 159.701C90.1687 159.094 91.0194 159.212 91.6434 159.535" stroke="#232148" stroke-width="1.98" stroke-miterlimit="10"/>
<path d="M87.6591 160.156C87.2694 160.069 86.4137 160.07 86.1431 160.558" stroke="#232148" stroke-width="1.98" stroke-miterlimit="10"/>
<path d="M94.9197 162.216C94.9197 162.216 95.833 159.679 96.6412 160.01" stroke="#C73B3B" stroke-width="1.98" stroke-linecap="round" stroke-linejoin="round"/>
<path d="M96.1111 163.651C96.1111 164.029 95.8054 164.335 95.427 164.335C95.0486 164.335 94.7429 164.029 94.7429 163.651C94.7429 163.272 95.0486 162.966 95.427 162.966C95.8054 162.966 96.1111 163.272 96.1111 163.651Z" fill="white"/>
<path d="M86.5215 177.108C86.1933 178.276 86.1858 178.779 85.9377 179.187C85.6909 179.594 83.3717 183.336 83.6812 186.59C83.9907 189.843 85.3213 191.42 87.128 192.273" stroke="#FDB0BF" stroke-width="1.98" stroke-linecap="round" stroke-linejoin="round"/>
<path d="M100.832 179.506C99.4327 182.424 96.769 191.464 96.4094 192.612" stroke="#FDB0BF" stroke-width="1.98" stroke-linecap="round" stroke-linejoin="round"/>
<path d="M92.573 155.959C91.1659 154.853 89.3943 154.222 87.6014 154.217C87.3759 154.217 87.1529 154.227 86.9286 154.249C86.896 154.251 86.8697 154.263 86.8459 154.278C86.4137 154.19 85.9664 154.161 85.5291 154.176C85.1019 154.19 84.6207 154.229 84.3125 154.563C84.0056 154.895 83.9128 155.386 83.8239 155.814C83.7199 156.309 83.656 156.813 83.6334 157.32C83.6096 157.84 83.6297 158.362 83.6948 158.878C83.7262 159.125 83.7612 159.372 83.8164 159.615C83.8627 159.819 83.9404 160.032 84.097 160.179C84.2436 160.315 84.4466 160.397 84.6483 160.353C84.8538 160.308 85.0154 160.137 85.1808 160.018C85.5316 159.765 85.9012 159.536 86.2821 159.336C87.8532 158.506 89.6574 158.174 91.4253 158.236C91.8701 158.251 92.3161 158.289 92.7559 158.356C92.9751 158.388 93.1919 158.442 93.4124 158.469C93.6291 158.495 93.8046 158.393 93.8609 158.177C94.0977 157.261 93.2107 156.461 92.5742 155.96L92.573 155.959Z" fill="#232148"/>
<path d="M112.637 205.998C112.637 205.998 116.966 204.559 122.421 204.686C123.036 204.7 123.635 204.503 124.14 204.151C134.998 196.578 148.953 196.571 157.305 205.339C163.935 212.3 162.751 221.253 161.883 224.93C161.63 226 161.785 227.125 162.296 228.099L162.319 228.143C163.255 229.923 161.963 232.059 159.952 232.059H89.0299C84.6622 232.059 84.5708 223.096 90.8854 220.919L112.637 206V205.998Z" fill="white"/>
<path d="M122.87 224.384C122.795 224.358 121.707 223.986 120.033 223.785C119.368 223.705 119.016 222.951 119.392 222.397C124.131 215.415 121.837 208.272 116.665 205.087C114.216 205.474 112.637 205.998 112.637 205.998L90.8854 220.916C84.5708 223.094 84.6622 232.057 89.0299 232.057H106.067C106.667 232.057 107.215 231.675 107.382 231.098C109.074 225.301 115.772 224.687 117.317 224.623C120.302 224.518 122.53 225.274 122.555 225.282C122.603 225.299 122.65 225.308 122.698 225.309C122.9 225.314 123.09 225.191 123.159 224.991C123.246 224.742 123.115 224.472 122.867 224.385L122.87 224.384Z" fill="#BF784A"/>
<path d="M110.155 231.497C110.104 231.497 110.051 231.488 110 231.471C109.752 231.385 109.62 231.115 109.705 230.867C110.413 228.812 111.528 227.967 111.576 227.932C111.785 227.776 112.083 227.82 112.241 228.031C112.398 228.241 112.354 228.538 112.145 228.694C112.128 228.707 111.206 229.43 110.604 231.176C110.536 231.373 110.352 231.497 110.154 231.497H110.155Z" fill="#BF784A"/>
<path d="M112.829 231.497C112.778 231.497 112.725 231.488 112.674 231.471C112.426 231.385 112.294 231.115 112.379 230.867C113.087 228.812 114.202 227.967 114.25 227.932C114.46 227.776 114.757 227.82 114.915 228.031C115.072 228.241 115.028 228.537 114.819 228.694C114.802 228.707 113.88 229.43 113.278 231.176C113.21 231.373 113.026 231.497 112.828 231.497H112.829Z" fill="#BF784A"/>
<path d="M90.0221 212.024C90.0221 212.024 87.4223 208.514 86.4651 203.78C86.3135 203.028 86.9249 202.349 87.688 202.418C91.0859 202.729 93.306 203.874 94.4913 204.519L90.0221 212.025V212.024Z" fill="white"/>
<path d="M93.013 206.013C93.013 206.013 91.3654 205.081 89.5124 204.602C89.0087 204.472 88.5501 204.94 88.693 205.441C89.3119 207.618 90.6174 209.755 90.6174 209.755L93.013 206.013Z" fill="#232148"/>
<path d="M116.16 205.998C116.16 205.998 116.961 201.703 115.748 197.028C115.555 196.286 114.708 195.942 114.053 196.339C111.134 198.106 109.639 200.108 108.856 201.207L116.16 205.998Z" fill="white"/>
<path d="M110.841 201.903C110.841 201.903 111.914 200.343 113.37 199.102C113.766 198.763 114.384 198.985 114.475 199.498C114.871 201.725 114.633 204.219 114.633 204.219L110.841 201.903Z" fill="#232148"/>
<path d="M120.116 211.438C118.301 203.571 109.833 198.807 101.198 200.798C92.5642 202.789 87.0351 210.78 88.8481 218.646C90.2401 224.682 95.0575 226.741 101.125 226.474C101.548 226.455 101.961 226.56 102.331 226.765C103.571 227.451 105.392 227.667 107.292 227.228C109.16 226.797 110.68 225.834 111.506 224.7C111.783 224.319 112.141 224.01 112.572 223.822C118.105 221.404 121.501 217.451 120.116 211.438Z" fill="white"/>
<path d="M94.6555 212.733C96.8945 211.184 100.192 211.795 102.14 214.296" stroke="#232148" stroke-width="1.65" stroke-linecap="round" stroke-linejoin="round"/>
<path d="M112.307 208.665C109.614 208.252 106.919 210.245 106.261 213.347" stroke="#232148" stroke-width="1.65" stroke-linecap="round" stroke-linejoin="round"/>
<path d="M98.8401 201.519C98.8902 201.774 98.9441 202.031 99.0042 202.292C99.9301 206.31 101.761 209.319 103.092 209.012C104.423 208.705 104.751 205.198 103.825 201.18C103.765 200.921 103.701 200.665 103.635 200.415C102.828 200.485 102.015 200.613 101.201 200.801C100.386 200.989 99.5981 201.23 98.8426 201.52L98.8401 201.519Z" fill="#BF784A"/>
<path d="M107.82 206.28C108.732 206.178 109.257 203.89 109.174 200.833C107.879 200.515 106.524 200.347 105.136 200.347C105.69 203.823 106.817 206.391 107.82 206.28Z" fill="#BF784A"/>
<path d="M97.6449 208.626C98.5946 208.288 98.4831 205.485 97.4594 202.119C96.2115 202.725 95.0676 203.469 94.0415 204.323C95.3057 207.108 96.7791 208.935 97.6436 208.626H97.6449Z" fill="#BF784A"/>
<path d="M104.512 215.169C103.86 215.319 102.823 215.383 102.923 215.818C103.12 216.669 104.403 217.077 104.924 216.957C105.445 216.837 106.42 215.908 106.223 215.056C106.123 214.621 105.162 215.019 104.512 215.168V215.169Z" fill="#C73B3B"/>
<path d="M105.343 218.777C105.343 218.777 104.728 219.582 103.699 219.98C104.136 221.183 105.389 221.855 106.018 221.709C106.647 221.564 107.48 220.412 107.346 219.139C106.247 219.232 105.342 218.779 105.342 218.779L105.343 218.777Z" fill="#C73B3B"/>
<path d="M100.116 217.447C100.409 218.717 99.6159 219.985 98.3454 220.277C97.075 220.57 95.807 219.777 95.5138 218.507C95.2206 217.236 96.0137 215.968 97.2842 215.676C98.5546 215.383 99.8226 216.176 100.114 217.447H100.116Z" fill="#FDB0BF"/>
<path d="M114.062 214.232C114.355 215.502 113.562 216.77 112.291 217.062C111.021 217.355 109.753 216.562 109.461 215.292C109.168 214.021 109.961 212.753 111.231 212.461C112.502 212.168 113.77 212.961 114.062 214.232Z" fill="#FDB0BF"/>
<path d="M90.8867 220.194L97.0548 217.532" stroke="#232148" stroke-width="0.99" stroke-linecap="round" stroke-linejoin="round"/>
<path d="M92.2576 222.571L97.6313 218.405" stroke="#232148" stroke-width="0.99" stroke-linecap="round" stroke-linejoin="round"/>
<path d="M94.7834 224.299L98.2841 219.055" stroke="#232148" stroke-width="0.99" stroke-linecap="round" stroke-linejoin="round"/>
<path d="M118.961 213.721L112.251 214.029" stroke="#232148" stroke-width="0.99" stroke-linecap="round" stroke-linejoin="round"/>
<path d="M118.769 216.46L112.114 215.066" stroke="#232148" stroke-width="0.99" stroke-linecap="round" stroke-linejoin="round"/>
<path d="M117.256 219.118L111.812 215.937" stroke="#232148" stroke-width="0.99" stroke-linecap="round" stroke-linejoin="round"/>
<path d="M101.23 218.115C100.928 220.05 103.844 220.863 105.266 218.44" stroke="#232148" stroke-width="1.65" stroke-linecap="round" stroke-linejoin="round"/>
<path d="M108.752 216.381C109.871 217.989 107.606 219.996 105.266 218.442" stroke="#232148" stroke-width="1.65" stroke-linecap="round" stroke-linejoin="round"/>
<path d="M88.7342 227.119C89.4107 224.88 93.3361 225.934 94.9411 226.777C96.5461 227.62 96.6463 229.425 95.2756 229.793C93.9049 230.16 87.9636 229.666 88.7342 227.119Z" fill="white"/>
<path d="M88.1978 204.057H22.0028V206.176H88.1978V204.057Z" fill="white"/>
<path d="M88.1978 204.057H22.0028V204.631H88.1978V204.057Z" fill="#8C89C2"/>
<path d="M88.7003 227.298H86.5703L81.4221 206.176H83.5533L88.7003 227.298Z" fill="white"/>
<path d="M88.7003 227.298H88.0676L82.9207 206.176H83.5534L88.7003 227.298Z" fill="#8C89C2"/>
<path d="M85.5781 217.165H66.5276V215.51H85.1621L85.5781 217.165Z" fill="white"/>
<path d="M70.5494 227.298H68.4194L63.2712 206.176H65.4024L70.5494 227.298Z" fill="white"/>
<path d="M70.5494 227.298H69.918L64.7698 206.176H65.4025L70.5494 227.298Z" fill="#8C89C2"/>
<path d="M63.2713 206.176H65.4012L65.4839 206.516L64.5305 206.975C64.0393 207.212 63.4555 206.935 63.3264 206.406L63.27 206.177L63.2713 206.176Z" fill="#8C89C2"/>
<path d="M81.4221 206.176H83.5521L83.6348 206.516L82.6826 206.975C82.1914 207.212 81.6075 206.935 81.4785 206.406L81.4221 206.177V206.176Z" fill="#8C89C2"/>
<path d="M84.7498 218.281L85.5993 217.165H84.1008L84.3527 218.198C84.3978 218.383 84.6358 218.432 84.7498 218.281Z" fill="#8C89C2"/>
<path d="M25.4534 218.281L24.6039 217.165H26.1024L25.8505 218.199C25.8054 218.383 25.5674 218.432 25.4534 218.281Z" fill="#8C89C2"/>
<path d="M21.5017 227.298H23.6329L28.7799 206.176H26.6499L21.5017 227.298Z" fill="#8C89C2"/>
<path d="M21.5017 227.298H22.1344L27.2814 206.176H26.6499L21.5017 227.298Z" fill="white"/>
<path d="M39.6526 227.298H41.7825L46.9307 206.176H44.7995L39.6526 227.298Z" fill="#8C89C2"/>
<path d="M39.6526 227.298H40.2853L45.4323 206.176H44.7995L39.6526 227.298Z" fill="white"/>
<path d="M46.9306 206.176H44.8007L44.718 206.516L45.6702 206.975C46.1614 207.212 46.7452 206.935 46.8743 206.406L46.9306 206.177V206.176Z" fill="#8C89C2"/>
<path d="M28.7799 206.176H26.6499L26.5673 206.516L27.5207 206.975C28.0119 207.212 28.5957 206.935 28.7248 206.406L28.7811 206.177L28.7799 206.176Z" fill="#8C89C2"/>
<path d="M24.6252 217.165H43.6745V215.51H25.0412L24.6252 217.165Z" fill="#8C89C2"/>
<path d="M84.0494 202.779H61.5735V204.051H84.0494V202.779Z" fill="white"/>
<path d="M67.8029 204.051H44.8308L40.8604 186.589H63.8324L67.8029 204.051Z" fill="#8C89C2"/>
<path d="M67.8031 204.051H66.8384L62.8679 186.589H63.8327L67.8031 204.051Z" fill="white"/>
<path d="M55.6373 195.32C55.8578 196.29 55.2364 197.077 54.2491 197.077C53.2618 197.077 52.2833 196.29 52.0628 195.32C51.8422 194.351 52.4637 193.564 53.451 193.564C54.4383 193.564 55.4168 194.351 55.6373 195.32Z" fill="white"/>
<path d="M84.0494 203.751H61.5735V204.051H84.0494V203.751Z" fill="#8C89C2"/>
<path d="M39.7089 52.6378C39.7089 52.6378 13.6534 77.7549 7.28357 104.882" stroke="#232148" stroke-width="2.6" stroke-miterlimit="10"/>
<path d="M44.2131 37.3573L39.5949 43.6695L44.8609 38.5927L46.1727 41.0935L39.5761 48.4656L46.9909 42.6521L48.1197 44.8033L45.9171 47.0097L48.3966 45.3308L49.3789 47.2027L43.3537 52.2444L50.1519 48.6773L52.4059 52.9736L45.1992 55.7625L53.1038 54.3041L54.1099 56.2211L52.0977 57.0793L54.4156 56.805L55.8126 59.4674C48.9441 63.072 40.4544 60.4246 36.851 53.5562C33.2477 46.6877 35.8938 38.198 42.7623 34.5946L44.2131 37.3598V37.3573Z" fill="#FD4267"/>
<path d="M28.1008 57.5366C28.0318 61.4232 26.9944 64.796 25.511 66.5864C24.0927 64.7446 23.1756 61.3367 23.2445 57.4502C23.3134 53.5637 24.3508 50.1908 25.8342 48.4004C27.2525 50.2422 28.1697 53.6501 28.1008 57.5366Z" fill="#897F1F"/>
<path d="M31.0952 70.2574C34.8189 69.1423 38.3483 69.106 40.5046 69.9755C39.1815 71.8862 36.2121 73.7956 32.4885 74.9107C28.7648 76.0258 25.2354 76.0622 23.0791 75.1926C24.4022 73.282 27.3716 71.3725 31.0952 70.2574Z" fill="#897F1F"/>
<path d="M3.15725 93.1306C12.9524 83.3354 12.9524 67.4544 3.15725 57.6593C-6.63788 47.8641 -22.5189 47.8641 -32.314 57.6593C-42.1092 67.4544 -42.1092 83.3354 -32.314 93.1306C-22.5189 102.926 -6.63787 102.926 3.15725 93.1306Z" fill="#897F1F"/>
<path d="M15.1908 107.204C22.4959 99.899 22.4959 88.0551 15.1908 80.7499C7.88568 73.4448 -3.95826 73.4448 -11.2634 80.7499C-18.5685 88.0551 -18.5685 99.899 -11.2634 107.204C-3.95826 114.509 7.88568 114.509 15.1908 107.204Z" fill="#897F1F"/>
<path d="M21.4754 118.036C25.7855 113.726 25.7855 106.738 21.4754 102.428C17.1652 98.1176 10.177 98.1176 5.86687 102.428C1.5567 106.738 1.55671 113.726 5.86688 118.036C10.177 122.346 17.1652 122.346 21.4754 118.036Z" fill="#897F1F"/>
<path d="M34.5508 146.93C35.814 140.967 32.0039 135.109 26.0407 133.845C20.0775 132.582 14.2194 136.392 12.9562 142.356C11.6931 148.319 15.5032 154.177 21.4664 155.44C27.4295 156.703 33.2877 152.893 34.5508 146.93Z" fill="#897F1F"/>
<path d="M24.1988 144.652C31.6639 137.187 31.6639 125.083 24.1988 117.618C16.7337 110.153 4.63035 110.153 -2.83477 117.618C-10.2999 125.083 -10.2999 137.187 -2.83476 144.652C4.63036 152.117 16.7337 152.117 24.1988 144.652Z" fill="#897F1F"/>
<path d="M17.6978 153.872L-61.8281 101.675L-35.5471 61.6325L-14.5784 75.3944L18.0624 122.102L17.6978 153.872Z" fill="#897F1F"/>
<path d="M40.7739 91.1873C40.7739 91.1873 20.2387 110.012 -0.906616 113.617" stroke="#232148" stroke-width="2" stroke-miterlimit="10"/>
<path d="M52.505 92.2937L46.664 93.752L51.8134 91.473L50.4114 89.8116L43.2398 92.3726L49.5382 88.7755L48.3329 87.3459L46.1202 88.2756L48.0372 86.9964L46.9885 85.7522L41.6448 88.5825L46.1628 84.7724L43.7547 81.9171L39.6727 86.2446L43.0092 81.0338L41.9355 79.7595L40.739 80.9448L41.6085 79.3724L40.1163 77.6033C35.5519 81.4522 34.9718 88.2731 38.8208 92.8374C42.6697 97.4018 49.4905 97.9819 54.0549 94.1329L52.505 92.2949V92.2937Z" fill="#FD4267"/>
<path d="M36.4589 99.8738C33.4694 99.7422 30.8283 100.379 29.3824 101.432C30.7306 102.61 33.3053 103.476 36.2935 103.607C39.2829 103.739 41.9241 103.103 43.3699 102.049C42.0218 100.871 39.4471 100.005 36.4589 99.8738Z" fill="#897F1F"/>
<path d="M26.8266 96.9683C27.8602 94.1605 28.0557 91.4504 27.4906 89.7528C25.9596 90.6787 24.3521 92.8687 23.3184 95.6765C22.2848 98.4843 22.0893 101.194 22.6544 102.892C24.1854 101.966 25.7929 99.776 26.8266 96.9683Z" fill="#897F1F"/>
<path d="M14.0744 135.919C14.1058 135.871 14.1409 135.825 14.1722 135.777C17.5538 130.625 19.046 124.787 18.833 119.066L11.1815 118.448C11.1815 118.448 16.2595 117.242 18.6488 116.709C17.8169 109.782 14.4716 103.198 8.9087 98.4254L4.86556 101.315L7.74475 97.4782C7.16841 97.0346 6.57829 96.6024 5.96061 96.1964C2.13923 93.6881 -2.06051 92.2185 -6.31038 91.711L-7.5896 95.5788L-7.60714 91.5857C-11.6265 91.2913 -15.6608 91.8501 -19.4308 93.2083L-18.0627 100.108L-22.0031 94.277C-26.58 96.4483 -30.6381 99.8637 -33.6213 104.409C-33.6526 104.458 -33.6802 104.507 -33.7128 104.556L14.0732 135.919H14.0744Z" fill="#515C14"/>
<path d="M17.8896 127.473L-7.50691 120.512L18.6751 123.316C18.7052 123.054 18.7378 122.792 18.7603 122.529L-9.15198 119.962L14.9415 105.647C14.7059 105.244 14.4604 104.846 14.2048 104.454L-9.10312 119.475L6.10846 96.2979C6.05834 96.264 6.01072 96.2277 5.95935 96.1951C5.90799 96.1626 5.85662 96.1325 5.80525 96.0999L-9.14822 118.883L-0.847694 92.9213C-1.14213 92.8248 -1.43781 92.7296 -1.7335 92.6431L-9.58423 118.984L-10.5878 91.5255C-10.7081 91.5293 -10.8296 91.5343 -10.9499 91.5393L-10.0666 115.705L-12.937 91.6909C-13.0573 91.7047 -13.1763 91.7235 -13.2966 91.7385L-9.98766 119.425L-26.4459 96.9068C-26.7541 97.1298 -27.0586 97.3591 -27.3593 97.5959L-9.8699 120.2L-9.72455 120.091L-9.77217 120.265L17.7981 127.821C17.8307 127.705 17.8582 127.587 17.8896 127.47V127.473Z" fill="#232148"/>
<path d="M70.6195 108.637C66.3546 109.155 66.0012 109.575 65.5652 114.653C65.1292 109.576 64.7759 109.155 60.511 108.637C64.7759 108.118 65.1292 107.698 65.5652 102.62C66.0012 107.697 66.3546 108.118 70.6195 108.637Z" fill="white"/>
<path d="M57.7758 152.407C55.0269 152.742 54.8001 153.012 54.5195 156.284C54.2388 153.012 54.0108 152.742 51.2632 152.407C54.0121 152.072 54.2388 151.802 54.5195 148.531C54.8001 151.802 55.0282 152.072 57.7758 152.407Z" fill="white"/>
</g>
</g>
<defs>
<filter id="filter0_d_54_1516" x="0" y="0" width="119.823" height="259" filterUnits="userSpaceOnUse" color-interpolation-filters="sRGB">
<feFlood flood-opacity="0" result="BackgroundImageFix"/>
<feColorMatrix in="SourceAlpha" type="matrix" values="0 0 0 0 0 0 0 0 0 0 0 0 0 0 0 0 0 0 127 0" result="hardAlpha"/>
<feOffset dx="-7" dy="7"/>
<feGaussianBlur stdDeviation="5"/>
<feColorMatrix type="matrix" values="0 0 0 0 0 0 0 0 0 0 0 0 0 0 0 0 0 0 0.25 0"/>
<feBlend mode="normal" in2="BackgroundImageFix" result="effect1_dropShadow_54_1516"/>
<feBlend mode="normal" in="SourceGraphic" in2="effect1_dropShadow_54_1516" result="shape"/>
</filter>
</defs>
</svg>
