<svg width="155" height="28" viewBox="0 0 155 28" fill="none" xmlns="http://www.w3.org/2000/svg">
<rect x="0.5" y="0.5" width="154" height="27" rx="7.5" fill="white" stroke="#6A58FF"/>
<path d="M63.9062 9.03516V9.99609C63.9062 10.9922 63.9062 12.082 63.6367 13.5703H65.043V14.7773H60.8828V19.0898H59.3828V14.7773H55.3164V13.5703H62.125C62.3945 12.1934 62.418 11.1504 62.418 10.2305H56.4297V9.03516H63.9062ZM74.9336 8.41406V19.0781H73.5039V13.6992H72.543V18.5859H71.125V8.56641H72.543V12.4805H73.5039V8.41406H74.9336ZM70.2344 9.51562V16.3945H65.9922V9.51562H70.2344ZM67.3867 10.6992V15.2227H68.8398V10.6992H67.3867ZM88.0234 8.41406V19.0781H86.582V13.7461H85.5859V18.5625H84.1797V8.58984H85.5859V12.5391H86.582V8.41406H88.0234ZM80.7578 9.59766V15.1641C81.6133 15.1465 82.5508 15.0703 83.582 14.8711L83.7344 16.1602C82.3047 16.4062 81.0859 16.4766 79.9844 16.4766H79.2578V9.59766H80.7578ZM98.1836 15.1992V19.0781H96.6953V16.3711H90.8594V15.1992H98.1836ZM98.1836 8.41406V14.7188H96.6953V13.3711H94.3047C93.7949 13.9219 93.0391 14.25 92.1719 14.25C90.5547 14.25 89.3242 13.1367 89.3359 11.5898C89.3242 10.0781 90.5547 8.97656 92.1719 8.98828C93.0391 8.98242 93.7949 9.30469 94.3047 9.84375H96.6953V8.41406H98.1836ZM92.1719 10.2422C91.3398 10.2422 90.7422 10.7578 90.7539 11.5898C90.7422 12.4688 91.3398 12.9727 92.1719 12.9727C92.957 12.9727 93.5664 12.4688 93.5664 11.5898C93.5664 10.7578 92.957 10.2422 92.1719 10.2422ZM94.9258 12.1758H96.6953V11.0508H94.9375C94.9668 11.2207 94.9844 11.4023 94.9844 11.5898C94.9844 11.7949 94.9609 11.9883 94.9258 12.1758Z" fill="#6B59FF"/>
</svg>
