<svg width="98" height="15" viewBox="0 0 98 15" fill="none" xmlns="http://www.w3.org/2000/svg">
<path d="M0.191406 15V0.859375H5.73828C8.96094 0.859375 10.7969 2.83203 10.7969 5.625C10.7969 8.45703 8.92188 10.3906 5.66016 10.3906H3.12109V15H0.191406ZM3.12109 8.02734H5.19141C6.92969 8.02734 7.76953 7.05078 7.76953 5.625C7.76953 4.21875 6.92969 3.26172 5.19141 3.26172H3.12109V8.02734ZM17.2617 0.859375H20.8945L24.8203 10.4492H24.9766L28.9023 0.859375H32.5352V15H29.6836V5.74219H29.5664L25.875 14.9414H23.9219L20.2305 5.70312H20.1133V15H17.2617V0.859375ZM37.2812 15H34.1172L39.0195 0.859375H42.7891L47.6719 15H44.5273L43.4727 11.7383H38.3555L37.2812 15ZM39.0977 9.45312H42.7305L40.9531 4.04297H40.8555L39.0977 9.45312ZM49.2734 15V0.859375H54.8203C58.043 0.859375 59.8789 2.67578 59.8789 5.46875C59.8789 7.40234 58.9902 8.80859 57.3789 9.49219L60.3867 15H57.1445L54.4492 9.98047H52.2031V15H49.2734ZM52.2031 7.59766H54.2734C56.0117 7.59766 56.8516 6.875 56.8516 5.46875C56.8516 4.04297 56.0117 3.26172 54.2734 3.26172H52.2031V7.59766ZM61.9102 15V0.859375H64.8398V7.12891H65.0352L70.1719 0.859375H73.707L68.4336 7.1875L73.7656 15H70.25L66.3242 9.16016L64.8398 10.957V15H61.9102ZM75.1719 15V0.859375H84.6641V3.28125H78.1016V6.71875H84.1758V9.14062H78.1016V12.5781H84.6836V15H75.1719ZM86.4023 3.28125V0.859375H97.9844V3.28125H93.6484V15H90.7383V3.28125H86.4023Z" fill="black"/>
</svg>
