<svg width="155" height="28" viewBox="0 0 155 28" fill="none" xmlns="http://www.w3.org/2000/svg">
<rect width="155" height="28" rx="8" fill="#6A58FF"/>
<path d="M70.5156 8.41406V19.0781H69.0742V13.7461H68.0781V18.5625H66.6719V8.58984H68.0781V12.5391H69.0742V8.41406H70.5156ZM63.25 9.59766V15.1641C64.1055 15.1465 65.043 15.0703 66.0742 14.8711L66.2266 16.1602C64.7969 16.4062 63.5781 16.4766 62.4766 16.4766H61.75V9.59766H63.25ZM78.5898 11.3203C78.5898 13.043 79.4688 14.8828 81.2617 15.6328L80.4531 16.8047C79.1934 16.2715 78.3262 15.2109 77.8516 13.9102C77.3652 15.3223 76.4805 16.4941 75.2266 17.0742L74.3711 15.8906C76.1406 15.1055 77.0547 13.125 77.0547 11.3203V10.6641H74.793V9.44531H80.8164V10.6641H78.5898V11.3203ZM83.3828 8.41406V19.0781H81.8711V8.41406H83.3828ZM93.2852 8.41406V10.7227H94.7266V11.9531H93.2852V14.2031H91.7734V8.41406H93.2852ZM90.3203 8.98828C90.3203 11.8125 88.5742 13.6055 85.3164 14.332L84.7773 13.125C87.2676 12.5977 88.4863 11.4727 88.668 10.1602H85.3164V8.98828H90.3203ZM87.7891 14.6133V15.6562H91.7852V14.6133H93.2852V18.9609H86.2773V14.6133H87.7891ZM87.7891 17.7539H91.7852V16.8047H87.7891V17.7539Z" fill="white"/>
</svg>
