<svg width="34" height="12" viewBox="0 0 34 12" fill="none" xmlns="http://www.w3.org/2000/svg">
<path d="M9.51562 0.414062V11.0781H8.07422V5.74609H7.07812V10.5625H5.67188V0.589844H7.07812V4.53906H8.07422V0.414062H9.51562ZM2.25 1.59766V7.16406C3.10547 7.14648 4.04297 7.07031 5.07422 6.87109L5.22656 8.16016C3.79688 8.40625 2.57812 8.47656 1.47656 8.47656H0.75V1.59766H2.25ZM17.5898 3.32031C17.5898 5.04297 18.4688 6.88281 20.2617 7.63281L19.4531 8.80469C18.1934 8.27148 17.3262 7.21094 16.8516 5.91016C16.3652 7.32227 15.4805 8.49414 14.2266 9.07422L13.3711 7.89062C15.1406 7.10547 16.0547 5.125 16.0547 3.32031V2.66406H13.793V1.44531H19.8164V2.66406H17.5898V3.32031ZM22.3828 0.414062V11.0781H20.8711V0.414062H22.3828ZM32.2852 0.414062V2.72266H33.7266V3.95312H32.2852V6.20312H30.7734V0.414062H32.2852ZM29.3203 0.988281C29.3203 3.8125 27.5742 5.60547 24.3164 6.33203L23.7773 5.125C26.2676 4.59766 27.4863 3.47266 27.668 2.16016H24.3164V0.988281H29.3203ZM26.7891 6.61328V7.65625H30.7852V6.61328H32.2852V10.9609H25.2773V6.61328H26.7891ZM26.7891 9.75391H30.7852V8.80469H26.7891V9.75391Z" fill="white"/>
</svg>
